<?xml version="1.0"?>
<svg xmlns="http://www.w3.org/2000/svg" width="492.6788330078125" height="212.97457885742188" viewBox="-236.92161560058594 -9.95267105102539 492.6788330078125 212.97457885742188"><title>Neo4j Graph Visualization</title><desc>Created using Neo4j (http://www.neo4j.com/)</desc><g class="layer relationships"><g class="relationship" transform="translate(-207.92160910815113 69.68140148464263) rotate(370.0591328399895)"><path class="outline" fill="#DE9BF9" stroke="none" d="M 25 6.5 L 92.99054543630066 6.5 L 92.99054543630066 9.5 L 111.99054543630066 0 L 92.99054543630066 -9.5 L 92.99054543630066 -6.5 L 25 -6.5 Z"></path><text text-anchor="middle" pointer-events="none" font-size="8px" fill="#FFFFFF" x="58.99527271815033" y="3" font-family="sans-serif">HAS_BASKET</text></g><g class="relationship" transform="translate(-73.03688059077797 93.60878228007658) rotate(348.4840690085017)"><path class="outline" fill="#A5ABB6" stroke="none" d="M 25 6.5 L 66.79560855055048 6.5 L 66.79560855055048 9.5 L 85.79560855055048 0 L 66.79560855055048 -9.5 L 66.79560855055048 -6.5 L 25 -6.5 Z"></path><text text-anchor="middle" pointer-events="none" font-size="8px" fill="#FFFFFF" x="45.89780427527524" y="3" font-family="sans-serif">NEXT</text></g><g class="relationship" transform="translate(35.5283273612398 71.48950343961815) rotate(330.846830759832)"><path class="outline" fill="#A5ABB6" stroke="none" d="M 25 6.5 L 63.65186137103187 6.5 L 63.65186137103187 9.5 L 82.65186137103187 0 L 63.65186137103187 -9.5 L 63.65186137103187 -6.5 L 25 -6.5 Z"></path><text text-anchor="middle" pointer-events="none" font-size="8px" fill="#FFFFFF" x="44.325930685515935" y="3" font-family="sans-serif">NEXT</text></g><g class="relationship" transform="translate(129.54290887182108 19.04732842715196) rotate(386.9097935487674)"><path class="outline" fill="#A5ABB6" stroke="none" d="M 25 6.5 L 62.061418204151664 6.5 L 62.061418204151664 9.5 L 81.06141820415166 0 L 62.061418204151664 -9.5 L 62.061418204151664 -6.5 L 25 -6.5 Z"></path><text text-anchor="middle" pointer-events="none" font-size="8px" fill="#FFFFFF" x="43.53070910207583" y="3" font-family="sans-serif">NEXT</text></g><g class="relationship" transform="translate(224.120016022536 67.04936207655213) rotate(448.58778159983933)"><path class="outline" fill="#A5ABB6" stroke="none" d="M 25 6.5 L 63.00505194985183 6.5 L 63.00505194985183 9.5 L 82.00505194985183 0 L 63.00505194985183 -9.5 L 63.00505194985183 -6.5 L 25 -6.5 Z"></path><text text-anchor="middle" pointer-events="none" font-size="8px" fill="#FFFFFF" x="44.002525974925916" y="3" font-family="sans-serif">NEXT</text></g></g><g class="layer nodes"><g class="node" transform="translate(-207.92160910815113,69.68140148464263)"><circle class="outline" cx="0" cy="0" r="25" fill="#68BDF6" stroke="#5CA8DB" stroke-width="2px"></circle><text text-anchor="middle" pointer-events="none" y="5" font-size="10px" fill="#FFFFFF" font-family="sans-serif"> Anna</text></g><g class="node" transform="translate(-73.03688059077797,93.60878228007658)"><circle class="outline" cx="0" cy="0" r="25" fill="#6DCE9E" stroke="#60B58B" stroke-width="2px"></circle><text text-anchor="middle" pointer-events="none" y="5" font-size="10px" fill="#FFFFFF" font-family="sans-serif"> Item1</text></g><g class="node" transform="translate(35.5283273612398,71.48950343961815)"><circle class="outline" cx="0" cy="0" r="25" fill="#6DCE9E" stroke="#60B58B" stroke-width="2px"></circle><text text-anchor="middle" pointer-events="none" y="5" font-size="10px" fill="#FFFFFF" font-family="sans-serif"> Item2</text></g><g class="node" transform="translate(129.54290887182108,19.04732842715196)"><circle class="outline" cx="0" cy="0" r="25" fill="#6DCE9E" stroke="#60B58B" stroke-width="2px"></circle><text text-anchor="middle" pointer-events="none" y="5" font-size="10px" fill="#FFFFFF" font-family="sans-serif"> Item3</text></g><g class="node" transform="translate(224.120016022536,67.04936207655213)"><circle class="outline" cx="0" cy="0" r="25" fill="#6DCE9E" stroke="#60B58B" stroke-width="2px"></circle><text text-anchor="middle" pointer-events="none" y="5" font-size="10px" fill="#FFFFFF" font-family="sans-serif"> Item4</text></g><g class="node" transform="translate(226.75719461142785,174.02191197549013)"><circle class="outline" cx="0" cy="0" r="25" fill="#6DCE9E" stroke="#60B58B" stroke-width="2px"></circle><text text-anchor="middle" pointer-events="none" y="5" font-size="10px" fill="#FFFFFF" font-family="sans-serif"> Item5</text></g></g></svg>