<?xml version="1.0"?>
<svg xmlns="http://www.w3.org/2000/svg" width="749.671630859375" height="340.18377685546875" viewBox="-257.3262023925781 -113.31331634521484 749.671630859375 340.18377685546875"><title>Neo4j Graph Visualization</title><desc>Created using Neo4j (http://www.neo4j.com/)</desc><g class="layer relationships"><g class="relationship" transform="translate(41.627555190932426 -55.00691067305449) rotate(514.7970398853719)"><path class="outline" fill="#A5ABB6" stroke="none" d="M 40 4 L 46.69959278065251 4 L 46.69959278065251 -4 L 40 -4 Z M 114.96131153065251 4 L 121.66090431130502 4 L 121.66090431130502 7 L 135.66090431130502 0 L 121.66090431130502 -7 L 121.66090431130502 -4 L 114.96131153065251 -4 Z"></path><text text-anchor="middle" pointer-events="none" font-size="8px" fill="#000000" x="80.83045215565251" y="3" transform="rotate(180 80.83045215565251 0)" font-family="sans-serif">STARTS_FLIGHT</text></g><g class="relationship" transform="translate(41.627555190932426 -55.00691067305449) rotate(458.20993506226455)"><path class="outline" fill="#A5ABB6" stroke="none" d="M 40 4 L 41.78628836314873 4 L 41.78628836314873 -4 L 40 -4 Z M 101.04800711314873 4 L 102.83429547629746 4 L 102.83429547629746 7 L 116.83429547629746 0 L 102.83429547629746 -7 L 102.83429547629746 -4 L 101.04800711314873 -4 Z"></path><text text-anchor="middle" pointer-events="none" font-size="8px" fill="#000000" x="71.41714773814873" y="3" transform="rotate(180 71.41714773814873 0)" font-family="sans-serif">STARTS_FLI…</text></g><g class="relationship" transform="translate(98.32694067523131 48.545183345955806) rotate(241.2973309051647)"><path class="outline" fill="#A5ABB6" stroke="none" d="M 25 4 L 26.529349670352694 4 L 26.529349670352694 -4 L 25 -4 Z M 62.529349670352694 4 L 64.05869934070539 4 L 64.05869934070539 7 L 78.05869934070539 0 L 64.05869934070539 -7 L 64.05869934070539 -4 L 62.529349670352694 -4 Z"></path><text text-anchor="middle" pointer-events="none" font-size="8px" fill="#000000" x="44.529349670352694" y="3" transform="rotate(180 44.529349670352694 0)" font-family="sans-serif">ENDS…</text></g><g class="relationship" transform="translate(251.82807538504332 103.09073616683656) rotate(341.51701923508097)"><path class="outline" fill="#A5ABB6" stroke="none" d="M 25 4 L 52.943807039850796 4 L 52.943807039850796 -4 L 25 -4 Z M 112.9438070398508 4 L 140.8876140797016 4 L 140.8876140797016 7 L 154.8876140797016 0 L 140.8876140797016 -7 L 140.8876140797016 -4 L 112.9438070398508 -4 Z"></path><text text-anchor="middle" pointer-events="none" font-size="8px" fill="#000000" x="82.9438070398508" y="3" font-family="sans-serif">ENDS_FLIGHT</text></g><g class="relationship" transform="translate(210.24173664646506 59.89945718122344) rotate(322.76520417928384)"><path class="outline" fill="#A5ABB6" stroke="none" d="M 25 4 L 62.27281588517191 4 L 62.27281588517191 -4 L 25 -4 Z M 122.27281588517191 4 L 159.54563177034382 4 L 159.54563177034382 7 L 173.54563177034382 0 L 159.54563177034382 -7 L 159.54563177034382 -4 L 122.27281588517191 -4 Z"></path><text text-anchor="middle" pointer-events="none" font-size="8px" fill="#000000" x="92.27281588517191" y="3" font-family="sans-serif">ENDS_FLIGHT</text></g><g class="relationship" transform="translate(266.650452219071 197.87044862193068) rotate(188.81054117236715)"><path class="outline" fill="#A5ABB6" stroke="none" d="M 25 4 L 28.724994832892037 4 L 28.724994832892037 -4 L 25 -4 Z M 88.72499483289204 4 L 92.44998966578407 4 L 92.44998966578407 7 L 106.44998966578407 0 L 92.44998966578407 -7 L 92.44998966578407 -4 L 88.72499483289204 -4 Z"></path><text text-anchor="middle" pointer-events="none" font-size="8px" fill="#000000" x="58.72499483289204" y="3" transform="rotate(180 58.72499483289204 0)" font-family="sans-serif">ENDS_FLIGHT</text></g><g class="relationship" transform="translate(121.92854040733661 175.43904842789823) rotate(307.39264742827544)"><path class="outline" fill="#A5ABB6" stroke="none" d="M 40 4 L 40.58196235442318 4 L 40.58196235442318 -4 L 40 -4 Z M 105.84368110442318 4 L 106.42564345884637 4 L 106.42564345884637 7 L 120.42564345884637 0 L 106.42564345884637 -7 L 106.42564345884637 -4 L 105.84368110442318 -4 Z"></path><text text-anchor="middle" pointer-events="none" font-size="8px" fill="#000000" x="73.21282172942318" y="3" font-family="sans-serif">STARTS_FLIG…</text></g><g class="relationship" transform="translate(21.373538609215938 85.3737937900775) rotate(401.8502158507922)"><path class="outline" fill="#A5ABB6" stroke="none" d="M 25 4 L 27.49640449608323 4 L 27.49640449608323 -4 L 25 -4 Z M 78.49640449608323 4 L 80.99280899216646 4 L 80.99280899216646 7 L 94.99280899216646 0 L 80.99280899216646 -7 L 80.99280899216646 -4 L 78.49640449608323 -4 Z"></path><text text-anchor="middle" pointer-events="none" font-size="8px" fill="#000000" x="52.99640449608323" y="3" font-family="sans-serif">ENDS_FLI…</text></g><g class="relationship" transform="translate(121.92854040733661 175.43904842789823) rotate(330.8841216479473)"><path class="outline" fill="#A5ABB6" stroke="none" d="M 40 4 L 40.713218187453705 4 L 40.713218187453705 -4 L 40 -4 Z M 108.9749369374537 4 L 109.68815512490741 4 L 109.68815512490741 7 L 123.68815512490741 0 L 109.68815512490741 -7 L 109.68815512490741 -4 L 108.9749369374537 -4 Z"></path><text text-anchor="middle" pointer-events="none" font-size="8px" fill="#000000" x="74.8440775624537" y="3" font-family="sans-serif">STARTS_FLIGHT</text></g><g class="relationship" transform="translate(121.92854040733661 175.43904842789823) rotate(259.4636797381365)"><path class="outline" fill="#A5ABB6" stroke="none" d="M 40 4 L 40.90418634697326 4 L 40.90418634697326 -4 L 40 -4 Z M 89.16590509697326 4 L 90.07009144394652 4 L 90.07009144394652 7 L 104.07009144394652 0 L 90.07009144394652 -7 L 90.07009144394652 -4 L 89.16590509697326 -4 Z"></path><text text-anchor="middle" pointer-events="none" font-size="8px" fill="#000000" x="65.03504572197326" y="3" transform="rotate(180 65.03504572197326 0)" font-family="sans-serif">STARTS_…</text></g><g class="relationship" transform="translate(121.92854040733661 175.43904842789823) rotate(534.3662031598235)"><path class="outline" fill="#A5ABB6" stroke="none" d="M 40 4 L 49.24855557414834 4 L 49.24855557414834 -4 L 40 -4 Z M 117.51027432414834 4 L 126.75882989829668 4 L 126.75882989829668 7 L 140.75882989829668 0 L 126.75882989829668 -7 L 126.75882989829668 -4 L 117.51027432414834 -4 Z"></path><text text-anchor="middle" pointer-events="none" font-size="8px" fill="#000000" x="83.37941494914834" y="3" transform="rotate(180 83.37941494914834 0)" font-family="sans-serif">STARTS_FLIGHT</text></g><g class="relationship" transform="translate(448.3454030125082 159.92859652726406) rotate(528.2048952010975)"><path class="outline" fill="#A5ABB6" stroke="none" d="M 40 4 L 59.17625145736447 4 L 59.17625145736447 -4 L 40 -4 Z M 127.43797020736447 4 L 146.61422166472894 4 L 146.61422166472894 7 L 160.61422166472894 0 L 146.61422166472894 -7 L 146.61422166472894 -4 L 127.43797020736447 -4 Z"></path><text text-anchor="middle" pointer-events="none" font-size="8px" fill="#000000" x="93.30711083236447" y="3" transform="rotate(180 93.30711083236447 0)" font-family="sans-serif">STARTS_FLIGHT</text></g><g class="relationship" transform="translate(-103.7392429948984 13.406685631526985) rotate(493.37353405974625)"><path class="outline" fill="#A5ABB6" stroke="none" d="M 25 4 L 35.28643376364259 4 L 35.28643376364259 -4 L 25 -4 Z M 95.28643376364259 4 L 105.57286752728518 4 L 105.57286752728518 7 L 119.57286752728518 0 L 105.57286752728518 -7 L 105.57286752728518 -4 L 95.28643376364259 -4 Z"></path><text text-anchor="middle" pointer-events="none" font-size="8px" fill="#000000" x="65.28643376364259" y="3" transform="rotate(180 65.28643376364259 0)" font-family="sans-serif">ENDS_FLIGHT</text></g><g class="relationship" transform="translate(-43.029618978478375 191.71158176774787) rotate(200.0979113957295)"><path class="outline" fill="#A5ABB6" stroke="none" d="M 25 4 L 46.16944515674773 4 L 46.16944515674773 -4 L 25 -4 Z M 106.16944515674773 4 L 127.33889031349545 4 L 127.33889031349545 7 L 141.33889031349545 0 L 127.33889031349545 -7 L 127.33889031349545 -4 L 106.16944515674773 -4 Z"></path><text text-anchor="middle" pointer-events="none" font-size="8px" fill="#000000" x="76.16944515674773" y="3" transform="rotate(180 76.16944515674773 0)" font-family="sans-serif">ENDS_FLIGHT</text></g><g class="relationship" transform="translate(187.5795388562396 -23.243790172190092) rotate(501.18906802837887)"><path class="outline" fill="#A5ABB6" stroke="none" d="M 25 0.5 L 26.770592368268673 0.5 L 26.770592368268673 -0.5 L 25 -0.5 Z M 80.77059236826867 0.5 L 82.54118473653735 0.5 L 82.54118473653735 3.5 L 89.54118473653735 0 L 82.54118473653735 -3.5 L 82.54118473653735 -0.5 L 80.77059236826867 -0.5 Z"></path><text text-anchor="middle" pointer-events="none" font-size="8px" fill="#000000" x="53.77059236826867" y="3" transform="rotate(180 53.77059236826867 0)" font-family="sans-serif">HAS_FLIGHT</text></g><g class="relationship" transform="translate(187.5795388562396 -23.243790172190092) rotate(423.04398637358724)"><path class="outline" fill="#A5ABB6" stroke="none" d="M 25 0.5 L 40.36657708574481 0.5 L 40.36657708574481 -0.5 L 25 -0.5 Z M 94.36657708574481 0.5 L 109.73315417148962 0.5 L 109.73315417148962 3.5 L 116.73315417148962 0 L 109.73315417148962 -3.5 L 109.73315417148962 -0.5 L 94.36657708574481 -0.5 Z"></path><text text-anchor="middle" pointer-events="none" font-size="8px" fill="#000000" x="67.36657708574481" y="3" font-family="sans-serif">HAS_FLIGHT</text></g><g class="relationship" transform="translate(187.5795388562396 -23.243790172190092) rotate(434.75336965267263)"><path class="outline" fill="#A5ABB6" stroke="none" d="M 25 0.5 L 27.088208332310025 0.5 L 27.088208332310025 -0.5 L 25 -0.5 Z M 52.088208332310025 0.5 L 54.17641666462005 0.5 L 54.17641666462005 3.5 L 61.17641666462005 0 L 54.17641666462005 -3.5 L 54.17641666462005 -0.5 L 52.088208332310025 -0.5 Z"></path><text text-anchor="middle" pointer-events="none" font-size="8px" fill="#000000" x="39.588208332310025" y="3" font-family="sans-serif">HA…</text></g></g><g class="layer nodes"><g class="node" transform="translate(41.627555190932426,-55.00691067305449)"><circle class="outline" cx="0" cy="0" r="40" fill="#68BDF6" stroke="#5CA8DB" stroke-width="2px"></circle><text text-anchor="middle" pointer-events="none" y="5" font-size="10px" fill="#FFFFFF" font-family="sans-serif"> San Francisco</text></g><g class="node" transform="translate(436.66297045566074,41.30688968644537)"><circle class="outline" cx="0" cy="0" r="40" fill="#68BDF6" stroke="#5CA8DB" stroke-width="2px"></circle><text text-anchor="middle" pointer-events="none" y="5" font-size="10px" fill="#FFFFFF" font-family="sans-serif"> Washington</text></g><g class="node" transform="translate(380.25878144210805,-69.31331822102388)"><circle class="outline" cx="0" cy="0" r="40" fill="#68BDF6" stroke="#5CA8DB" stroke-width="2px"></circle><text text-anchor="middle" pointer-events="none" y="5" font-size="10px" fill="#FFFFFF" font-family="sans-serif"> Las Vegas</text></g><g class="node" transform="translate(121.92854040733661,175.43904842789823)"><circle class="outline" cx="0" cy="0" r="40" fill="#68BDF6" stroke="#5CA8DB" stroke-width="2px"></circle><text text-anchor="middle" pointer-events="none" y="5" font-size="10px" fill="#FFFFFF" font-family="sans-serif"> New York</text></g><g class="node" transform="translate(448.3454030125082,159.92859652726406)"><circle class="outline" cx="0" cy="0" r="40" fill="#68BDF6" stroke="#5CA8DB" stroke-width="2px"></circle><text text-anchor="middle" pointer-events="none" y="5" font-size="10px" fill="#FFFFFF" font-family="sans-serif"> Londyn</text></g><g class="node" transform="translate(-213.32620015097865,129.3989218896143)"><circle class="outline" cx="0" cy="0" r="40" fill="#68BDF6" stroke="#5CA8DB" stroke-width="2px"></circle><text text-anchor="middle" pointer-events="none" y="5" font-size="10px" fill="#FFFFFF" font-family="sans-serif"> Warsaw</text></g><g class="node" transform="translate(98.32694067523131,48.545183345955806)"><circle class="outline" cx="0" cy="0" r="25" fill="#DE9BF9" stroke="#BF85D6" stroke-width="2px"></circle><text text-anchor="middle" pointer-events="none" y="5" font-size="10px" fill="#FFFFFF" font-family="sans-serif"> LO123</text></g><g class="node" transform="translate(251.82807538504332,103.09073616683656)"><circle class="outline" cx="0" cy="0" r="25" fill="#DE9BF9" stroke="#BF85D6" stroke-width="2px"></circle><text text-anchor="middle" pointer-events="none" y="5" font-size="10px" fill="#FFFFFF" font-family="sans-serif"> LO234</text></g><g class="node" transform="translate(210.24173664646506,59.89945718122344)"><circle class="outline" cx="0" cy="0" r="25" fill="#DE9BF9" stroke="#BF85D6" stroke-width="2px"></circle><text text-anchor="middle" pointer-events="none" y="5" font-size="10px" fill="#FFFFFF" font-family="sans-serif"> LO345</text></g><g class="node" transform="translate(266.650452219071,197.87044862193068)"><circle class="outline" cx="0" cy="0" r="25" fill="#DE9BF9" stroke="#BF85D6" stroke-width="2px"></circle><text text-anchor="middle" pointer-events="none" y="5" font-size="10px" fill="#FFFFFF" font-family="sans-serif"> KL567</text></g><g class="node" transform="translate(21.373538609215938,85.3737937900775)"><circle class="outline" cx="0" cy="0" r="25" fill="#DE9BF9" stroke="#BF85D6" stroke-width="2px"></circle><text text-anchor="middle" pointer-events="none" y="5" font-size="10px" fill="#FFFFFF" font-family="sans-serif"> KL678</text></g><g class="node" transform="translate(-103.7392429948984,13.406685631526985)"><circle class="outline" cx="0" cy="0" r="25" fill="#DE9BF9" stroke="#BF85D6" stroke-width="2px"></circle><text text-anchor="middle" pointer-events="none" y="5" font-size="10px" fill="#FFFFFF" font-family="sans-serif"> KL890</text></g><g class="node" transform="translate(-43.029618978478375,191.71158176774787)"><circle class="outline" cx="0" cy="0" r="25" fill="#DE9BF9" stroke="#BF85D6" stroke-width="2px"></circle><text text-anchor="middle" pointer-events="none" y="5" font-size="10px" fill="#FFFFFF" font-family="sans-serif"> KL901</text></g><g class="node" transform="translate(187.5795388562396,-23.243790172190092)"><circle class="outline" cx="0" cy="0" r="25" fill="#6DCE9E" stroke="#60B58B" stroke-width="2px"></circle><text text-anchor="middle" pointer-events="none" y="5" font-size="10px" fill="#FFFFFF" font-family="sans-serif"> LOT</text></g></g></svg>