<?xml version="1.0"?>
<svg xmlns="http://www.w3.org/2000/svg" width="310.7625427246094" height="343.4884338378906" viewBox="-29.149593353271484 -20.924901962280273 310.7625427246094 343.4884338378906"><title>Neo4j Graph Visualization</title><desc>Created using Neo4j (http://www.neo4j.com/)</desc><g class="layer relationships"><g class="relationship" transform="translate(14.593749513367726 3.0750986136121696) rotate(407.4949536253448)"><path class="outline" fill="#D4D6D7" stroke="none" d="M 20 6.5 L 43.68804105638037 6.5 L 43.68804105638037 9.5 L 62.68804105638037 0 L 43.68804105638037 -9.5 L 43.68804105638037 -6.5 L 20 -6.5 Z"></path><text text-anchor="middle" pointer-events="none" font-size="8px" fill="#FFFFFF" x="31.844020528190185" y="3" font-family="sans-serif">Y…</text></g><g class="relationship" transform="translate(70.46234957924791 64.03419687154556) rotate(496.55614933827025)"><path class="outline" fill="#D4D6D7" stroke="none" d="M 20 6.5 L 65.14171056956789 6.5 L 65.14171056956789 9.5 L 84.14171056956789 0 L 65.14171056956789 -9.5 L 65.14171056956789 -6.5 L 20 -6.5 Z"></path><text text-anchor="middle" pointer-events="none" font-size="8px" fill="#FFFFFF" x="42.570855284783946" y="3" transform="rotate(180 42.570855284783946 0)" font-family="sans-serif">MONTH</text></g><g class="relationship" transform="translate(122.33160518879886 293.5635323640763) rotate(257.2661321011986)"><path class="outline" fill="#FB95AF" stroke="none" d="M 25 6.5 L 196.31709570095342 6.5 L 196.31709570095342 9.5 L 215.31709570095342 0 L 196.31709570095342 -9.5 L 196.31709570095342 -6.5 L 25 -6.5 Z"></path><text text-anchor="middle" pointer-events="none" font-size="8px" fill="#FFFFFF" x="110.65854785047671" y="3" transform="rotate(180 110.65854785047671 0)" font-family="sans-serif">IN_YEAR</text></g><g class="relationship" transform="translate(70.46234957924791 64.03419687154556) rotate(337.24386658087417)"><path class="outline" fill="#D4D6D7" stroke="none" d="M 20 6.5 L 66.84195907972772 6.5 L 66.84195907972772 9.5 L 85.84195907972772 0 L 66.84195907972772 -9.5 L 66.84195907972772 -6.5 L 20 -6.5 Z"></path><text text-anchor="middle" pointer-events="none" font-size="8px" fill="#FFFFFF" x="43.42097953986386" y="3" font-family="sans-serif">MONTH</text></g><g class="relationship" transform="translate(252.61294843298532 209.8821273849395) rotate(218.68424507246687)"><path class="outline" fill="#FB95AF" stroke="none" d="M 25 6.5 L 194.3462223774256 6.5 L 194.3462223774256 9.5 L 213.3462223774256 0 L 194.3462223774256 -9.5 L 194.3462223774256 -6.5 L 25 -6.5 Z"></path><text text-anchor="middle" pointer-events="none" font-size="8px" fill="#FFFFFF" x="109.6731111887128" y="3" transform="rotate(180 109.6731111887128 0)" font-family="sans-serif">IN_YEAR</text></g><g class="relationship" transform="translate(168.0655250112166 23.093502600061885) rotate(400.64716386167754)"><path class="outline" fill="#D4D6D7" stroke="none" d="M 20 6.5 L 69.14618597712601 6.5 L 69.14618597712601 9.5 L 88.14618597712601 0 L 69.14618597712601 -9.5 L 69.14618597712601 -6.5 L 20 -6.5 Z"></path><text text-anchor="middle" pointer-events="none" font-size="8px" fill="#FFFFFF" x="44.573092988563005" y="3" font-family="sans-serif">DAY</text></g><g class="relationship" transform="translate(252.61294843298532 209.8821273849395) rotate(268.7724019278374)"><path class="outline" fill="#D4D6D7" stroke="none" d="M 25 6.5 L 77.36901618160977 6.5 L 77.36901618160977 9.5 L 96.36901618160977 0 L 77.36901618160977 -9.5 L 77.36901618160977 -6.5 L 25 -6.5 Z"></path><text text-anchor="middle" pointer-events="none" font-size="8px" fill="#FFFFFF" x="51.18450809080488" y="3" transform="rotate(180 51.18450809080488 0)" font-family="sans-serif">OCCURR…</text></g><g class="relationship" transform="translate(-5.149593972449396 135.64655525116177) rotate(434.43237190805036)"><path class="outline" fill="#D4D6D7" stroke="none" d="M 20 6.5 L 67.26927691283231 6.5 L 67.26927691283231 9.5 L 86.26927691283231 0 L 67.26927691283231 -9.5 L 67.26927691283231 -6.5 L 20 -6.5 Z"></path><text text-anchor="middle" pointer-events="none" font-size="8px" fill="#FFFFFF" x="43.634638456416155" y="3" font-family="sans-serif">DAY</text></g><g class="relationship" transform="translate(122.33160518879886 293.5635323640763) rotate(209.30522519977967)"><path class="outline" fill="#D4D6D7" stroke="none" d="M 25 6.5 L 74.48431503497615 6.5 L 74.48431503497615 9.5 L 93.48431503497615 0 L 74.48431503497615 -9.5 L 74.48431503497615 -6.5 L 25 -6.5 Z"></path><text text-anchor="middle" pointer-events="none" font-size="8px" fill="#FFFFFF" x="49.742157517488074" y="3" transform="rotate(180 49.742157517488074 0)" font-family="sans-serif">OCCUR…</text></g></g><g class="layer nodes"><g class="node" transform="translate(14.593749513367726,3.0750986136121696)"><circle class="outline" cx="0" cy="0" r="20" fill="#F25A29" stroke="#DC4717" stroke-width="2px"></circle><text text-anchor="middle" pointer-events="none" y="5" font-size="10px" fill="#fff" font-family="sans-serif"> 76</text></g><g class="node" transform="translate(70.46234957924791,64.03419687154556)"><circle class="outline" cx="0" cy="0" r="20" fill="#68BDF6" stroke="#5CA8DB" stroke-width="2px"></circle><text text-anchor="middle" pointer-events="none" y="5" font-size="10px" fill="#FFFFFF" font-family="sans-serif"> 2007</text></g><g class="node" transform="translate(168.0655250112166,23.093502600061885)"><circle class="outline" cx="0" cy="0" r="20" fill="#FF756E" stroke="#E06760" stroke-width="2px"></circle><text text-anchor="middle" pointer-events="none" y="5" font-size="10px" fill="#FFFFFF" font-family="sans-serif"> 1</text></g><g class="node" transform="translate(250.11985990781614,93.53982021905327)"><circle class="outline" cx="0" cy="0" r="20" fill="#DE9BF9" stroke="#BF85D6" stroke-width="2px"></circle><text text-anchor="middle" pointer-events="none" y="5" font-size="10px" fill="#FFFFFF" font-family="sans-serif"> 14</text></g><g class="node" transform="translate(252.61294843298532,209.8821273849395)"><circle class="outline" cx="0" cy="0" r="25" fill="#30B6AF" stroke="#46A39E" stroke-width="2px"></circle><text text-anchor="middle" pointer-events="none" y="5" font-size="10px" fill="#fff" font-family="sans-serif"> purchas…</text></g><g class="node" transform="translate(-5.149593972449396,135.64655525116177)"><circle class="outline" cx="0" cy="0" r="20" fill="#FF756E" stroke="#E06760" stroke-width="2px"></circle><text text-anchor="middle" pointer-events="none" y="5" font-size="10px" fill="#FFFFFF" font-family="sans-serif"> 5</text></g><g class="node" transform="translate(23.370486380984733,238.01727485501087)"><circle class="outline" cx="0" cy="0" r="20" fill="#DE9BF9" stroke="#BF85D6" stroke-width="2px"></circle><text text-anchor="middle" pointer-events="none" y="5" font-size="10px" fill="#FFFFFF" font-family="sans-serif"> 24</text></g><g class="node" transform="translate(122.33160518879886,293.5635323640763)"><circle class="outline" cx="0" cy="0" r="25" fill="#30B6AF" stroke="#46A39E" stroke-width="2px"></circle><text text-anchor="middle" pointer-events="none" y="5" font-size="10px" fill="#fff" font-family="sans-serif"> purchas…</text></g></g></svg>