<?xml version="1.0"?>
<svg xmlns="http://www.w3.org/2000/svg" width="393.3602294921875" height="395.35540771484375" viewBox="-92.28102111816406 -89.12748718261719 393.3602294921875 395.35540771484375"><title>Neo4j Graph Visualization</title><desc>Created using Neo4j (http://www.neo4j.com/)</desc><g class="layer relationships"><g class="relationship" transform="translate(115.73808804572599 277.2279178836909) rotate(266.5581632240511)"><path class="outline" fill="#A5ABB6" stroke="none" d="M 25 0.5 L 53.45385667794899 0.5 L 53.45385667794899 -0.5 L 25 -0.5 Z M 107.45385667794899 0.5 L 135.90771335589798 0.5 L 135.90771335589798 3.5 L 142.90771335589798 0 L 135.90771335589798 -3.5 L 135.90771335589798 -0.5 L 107.45385667794899 -0.5 Z"></path><text text-anchor="middle" pointer-events="none" font-size="8px" fill="#000000" x="80.45385667794899" y="3" transform="rotate(180 80.45385667794899 0)" font-family="sans-serif">HAS_COLOR</text></g><g class="relationship" transform="translate(143.21126863447614 223.81574699978705) rotate(251.79596055635756)"><path class="outline" fill="#A5ABB6" stroke="none" d="M 25 0.5 L 29.60457213691938 0.5 L 29.60457213691938 -0.5 L 25 -0.5 Z M 83.60457213691939 0.5 L 88.20914427383876 0.5 L 88.20914427383876 3.5 L 95.20914427383876 0 L 88.20914427383876 -3.5 L 88.20914427383876 -0.5 L 83.60457213691939 -0.5 Z"></path><text text-anchor="middle" pointer-events="none" font-size="8px" fill="#000000" x="56.60457213691938" y="3" transform="rotate(180 56.60457213691938 0)" font-family="sans-serif">HAS_COLOR</text></g><g class="relationship" transform="translate(184.33985050388983 267.47636036995345) rotate(243.50598965741955)"><path class="outline" fill="#A5ABB6" stroke="none" d="M 25 0.5 L 57.688069429300185 0.5 L 57.688069429300185 -0.5 L 25 -0.5 Z M 111.68806942930019 0.5 L 144.37613885860037 0.5 L 144.37613885860037 3.5 L 151.37613885860037 0 L 144.37613885860037 -3.5 L 144.37613885860037 -0.5 L 111.68806942930019 -0.5 Z"></path><text text-anchor="middle" pointer-events="none" font-size="8px" fill="#000000" x="84.68806942930019" y="3" transform="rotate(180 84.68806942930019 0)" font-family="sans-serif">HAS_COLOR</text></g><g class="relationship" transform="translate(268.6535270935575 181.84206636730903) rotate(203.89682463257645)"><path class="outline" fill="#A5ABB6" stroke="none" d="M 25 0.5 L 58.63924790499398 0.5 L 58.63924790499398 -0.5 L 25 -0.5 Z M 112.63924790499398 0.5 L 146.27849580998796 0.5 L 146.27849580998796 3.5 L 153.27849580998796 0 L 146.27849580998796 -3.5 L 146.27849580998796 -0.5 L 112.63924790499398 -0.5 Z"></path><text text-anchor="middle" pointer-events="none" font-size="8px" fill="#000000" x="85.63924790499398" y="3" transform="rotate(180 85.63924790499398 0)" font-family="sans-serif">HAS_COLOR</text></g><g class="relationship" transform="translate(222.66562101346304 221.3278373810773) rotate(223.6717245337935)"><path class="outline" fill="#A5ABB6" stroke="none" d="M 25 0.5 L 50.38388015460285 0.5 L 50.38388015460285 -0.5 L 25 -0.5 Z M 104.38388015460285 0.5 L 129.7677603092057 0.5 L 129.7677603092057 3.5 L 136.7677603092057 0 L 129.7677603092057 -3.5 L 129.7677603092057 -0.5 L 104.38388015460285 -0.5 Z"></path><text text-anchor="middle" pointer-events="none" font-size="8px" fill="#000000" x="77.38388015460285" y="3" transform="rotate(180 77.38388015460285 0)" font-family="sans-serif">HAS_COLOR</text></g><g class="relationship" transform="translate(270.83728743320245 114.79721634421361) rotate(181.79416859133391)"><path class="outline" fill="#A5ABB6" stroke="none" d="M 25 0.5 L 52.13030080168281 0.5 L 52.13030080168281 -0.5 L 25 -0.5 Z M 106.13030080168281 0.5 L 133.26060160336561 0.5 L 133.26060160336561 3.5 L 140.26060160336561 0 L 133.26060160336561 -3.5 L 133.26060160336561 -0.5 L 106.13030080168281 -0.5 Z"></path><text text-anchor="middle" pointer-events="none" font-size="8px" fill="#000000" x="79.13030080168281" y="3" transform="rotate(180 79.13030080168281 0)" font-family="sans-serif">HAS_COLOR</text></g><g class="relationship" transform="translate(217.65191215612725 150.28332923498036) rotate(199.95377431403853)"><path class="outline" fill="#A5ABB6" stroke="none" d="M 25 0.5 L 29.073399018805958 0.5 L 29.073399018805958 -0.5 L 25 -0.5 Z M 83.07339901880596 0.5 L 87.14679803761192 0.5 L 87.14679803761192 3.5 L 94.14679803761192 0 L 87.14679803761192 -3.5 L 87.14679803761192 -0.5 L 83.07339901880596 -0.5 Z"></path><text text-anchor="middle" pointer-events="none" font-size="8px" fill="#000000" x="56.07339901880596" y="3" transform="rotate(180 56.07339901880596 0)" font-family="sans-serif">HAS_COLOR</text></g><g class="relationship" transform="translate(272.0792086619924 54.821722533138825) rotate(521.7736763150983)"><path class="outline" fill="#A5ABB6" stroke="none" d="M 25 0.5 L 57.10608482622695 0.5 L 57.10608482622695 -0.5 L 25 -0.5 Z M 111.10608482622695 0.5 L 143.2121696524539 0.5 L 143.2121696524539 3.5 L 150.2121696524539 0 L 143.2121696524539 -3.5 L 143.2121696524539 -0.5 L 111.10608482622695 -0.5 Z"></path><text text-anchor="middle" pointer-events="none" font-size="8px" fill="#000000" x="84.10608482622695" y="3" transform="rotate(180 84.10608482622695 0)" font-family="sans-serif">HAS_COLOR</text></g><g class="relationship" transform="translate(212.10864229822042 53.68442682943143) rotate(512.2786338878875)"><path class="outline" fill="#A5ABB6" stroke="none" d="M 25 0.5 L 29.62681101794935 0.5 L 29.62681101794935 -0.5 L 25 -0.5 Z M 83.62681101794935 0.5 L 88.2536220358987 0.5 L 88.2536220358987 3.5 L 95.2536220358987 0 L 88.2536220358987 -3.5 L 88.2536220358987 -0.5 L 83.62681101794935 -0.5 Z"></path><text text-anchor="middle" pointer-events="none" font-size="8px" fill="#000000" x="56.62681101794935" y="3" transform="rotate(180 56.62681101794935 0)" font-family="sans-serif">HAS_COLOR</text></g><g class="relationship" transform="translate(235.05976318570325 -3.0311098191776797) rotate(498.95798966212453)"><path class="outline" fill="#A5ABB6" stroke="none" d="M 25 0.5 L 55.28440465317571 0.5 L 55.28440465317571 -0.5 L 25 -0.5 Z M 109.28440465317571 0.5 L 139.56880930635143 0.5 L 139.56880930635143 3.5 L 146.56880930635143 0 L 139.56880930635143 -3.5 L 139.56880930635143 -0.5 L 109.28440465317571 -0.5 Z"></path><text text-anchor="middle" pointer-events="none" font-size="8px" fill="#000000" x="82.28440465317571" y="3" transform="rotate(180 82.28440465317571 0)" font-family="sans-serif">HAS_COLOR</text></g><g class="relationship" transform="translate(148.4727703359341 -1.9438914789847435) rotate(470.9948627218209)"><path class="outline" fill="#A5ABB6" stroke="none" d="M 25 0.5 L 29.250138213015738 0.5 L 29.250138213015738 -0.5 L 25 -0.5 Z M 83.25013821301573 0.5 L 87.50027642603148 0.5 L 87.50027642603148 3.5 L 94.50027642603148 0 L 87.50027642603148 -3.5 L 87.50027642603148 -0.5 L 83.25013821301573 -0.5 Z"></path><text text-anchor="middle" pointer-events="none" font-size="8px" fill="#000000" x="56.25013821301574" y="3" transform="rotate(180 56.25013821301574 0)" font-family="sans-serif">HAS_COLOR</text></g><g class="relationship" transform="translate(190.12411205845765 -45.12750697405146) rotate(478.62672306589127)"><path class="outline" fill="#A5ABB6" stroke="none" d="M 25 0.5 L 57.650885024545815 0.5 L 57.650885024545815 -0.5 L 25 -0.5 Z M 111.65088502454581 0.5 L 144.30177004909163 0.5 L 144.30177004909163 3.5 L 151.30177004909163 0 L 144.30177004909163 -3.5 L 144.30177004909163 -0.5 L 111.65088502454581 -0.5 Z"></path><text text-anchor="middle" pointer-events="none" font-size="8px" fill="#000000" x="84.65088502454581" y="3" transform="rotate(180 84.65088502454581 0)" font-family="sans-serif">HAS_COLOR</text></g><g class="relationship" transform="translate(67.29576120457595 -57.77647409906018) rotate(437.09273816041144)"><path class="outline" fill="#A5ABB6" stroke="none" d="M 25 0.5 L 55.36944308230299 0.5 L 55.36944308230299 -0.5 L 25 -0.5 Z M 109.369443082303 0.5 L 139.738886164606 0.5 L 139.738886164606 3.5 L 146.738886164606 0 L 139.738886164606 -3.5 L 139.738886164606 -0.5 L 109.369443082303 -0.5 Z"></path><text text-anchor="middle" pointer-events="none" font-size="8px" fill="#000000" x="82.369443082303" y="3" font-family="sans-serif">HAS_COLOR</text></g><g class="relationship" transform="translate(127.22119000898586 -60.12748846748407) rotate(457.2395327030785)"><path class="outline" fill="#A5ABB6" stroke="none" d="M 25 0.5 L 55.057341819001266 0.5 L 55.057341819001266 -0.5 L 25 -0.5 Z M 109.05734181900127 0.5 L 139.11468363800253 0.5 L 139.11468363800253 3.5 L 146.11468363800253 0 L 139.11468363800253 -3.5 L 139.11468363800253 -0.5 L 109.05734181900127 -0.5 Z"></path><text text-anchor="middle" pointer-events="none" font-size="8px" fill="#000000" x="82.05734181900127" y="3" transform="rotate(180 82.05734181900127 0)" font-family="sans-serif">HAS_COLOR</text></g><g class="relationship" transform="translate(55.53316475767283 2.9838298466260573) rotate(424.8246719391132)"><path class="outline" fill="#A5ABB6" stroke="none" d="M 25 0.5 L 28.416034243711046 0.5 L 28.416034243711046 -0.5 L 25 -0.5 Z M 82.41603424371104 0.5 L 85.83206848742209 0.5 L 85.83206848742209 3.5 L 92.83206848742209 0 L 85.83206848742209 -3.5 L 85.83206848742209 -0.5 L 82.41603424371104 -0.5 Z"></path><text text-anchor="middle" pointer-events="none" font-size="8px" fill="#000000" x="55.416034243711046" y="3" font-family="sans-serif">HAS_COLOR</text></g><g class="relationship" transform="translate(8.183272516732757 -35.201849503600165) rotate(416.0574686333275)"><path class="outline" fill="#A5ABB6" stroke="none" d="M 25 0.5 L 56.78619779476372 0.5 L 56.78619779476372 -0.5 L 25 -0.5 Z M 110.78619779476372 0.5 L 142.57239558952745 0.5 L 142.57239558952745 3.5 L 149.57239558952745 0 L 142.57239558952745 -3.5 L 142.57239558952745 -0.5 L 110.78619779476372 -0.5 Z"></path><text text-anchor="middle" pointer-events="none" font-size="8px" fill="#000000" x="83.78619779476372" y="3" font-family="sans-serif">HAS_COLOR</text></g><g class="relationship" transform="translate(-34.657925610273544 6.965106440846833) rotate(396.1900124025912)"><path class="outline" fill="#A5ABB6" stroke="none" d="M 25 0.5 L 56.42976029261861 0.5 L 56.42976029261861 -0.5 L 25 -0.5 Z M 110.42976029261861 0.5 L 141.85952058523722 0.5 L 141.85952058523722 3.5 L 148.85952058523722 0 L 141.85952058523722 -3.5 L 141.85952058523722 -0.5 L 110.42976029261861 -0.5 Z"></path><text text-anchor="middle" pointer-events="none" font-size="8px" fill="#000000" x="83.42976029261861" y="3" font-family="sans-serif">HAS_COLOR</text></g><g class="relationship" transform="translate(-63.28102599716361 68.16703646127404) rotate(373.78742851036736)"><path class="outline" fill="#A5ABB6" stroke="none" d="M 25 0.5 L 56.475423425445285 0.5 L 56.475423425445285 -0.5 L 25 -0.5 Z M 110.47542342544529 0.5 L 141.95084685089057 0.5 L 141.95084685089057 3.5 L 148.95084685089057 0 L 141.95084685089057 -3.5 L 141.95084685089057 -0.5 L 110.47542342544529 -0.5 Z"></path><text text-anchor="middle" pointer-events="none" font-size="8px" fill="#000000" x="83.47542342544529" y="3" font-family="sans-serif">HAS_COLOR</text></g><g class="relationship" transform="translate(-3.7790855727221184 60.48367266542618) rotate(384.1810717270246)"><path class="outline" fill="#A5ABB6" stroke="none" d="M 25 0.5 L 29.481436891591493 0.5 L 29.481436891591493 -0.5 L 25 -0.5 Z M 83.4814368915915 0.5 L 87.96287378318299 0.5 L 87.96287378318299 3.5 L 94.96287378318299 0 L 87.96287378318299 -3.5 L 87.96287378318299 -0.5 L 83.4814368915915 -0.5 Z"></path><text text-anchor="middle" pointer-events="none" font-size="8px" fill="#000000" x="56.48143689159149" y="3" font-family="sans-serif">HAS_COLOR</text></g><g class="relationship" transform="translate(-62.72460254889944 128.14974143870992) rotate(353.7211479975613)"><path class="outline" fill="#A5ABB6" stroke="none" d="M 25 0.5 L 54.199231098176824 0.5 L 54.199231098176824 -0.5 L 25 -0.5 Z M 108.19923109817682 0.5 L 137.39846219635365 0.5 L 137.39846219635365 3.5 L 144.39846219635365 0 L 137.39846219635365 -3.5 L 137.39846219635365 -0.5 L 108.19923109817682 -0.5 Z"></path><text text-anchor="middle" pointer-events="none" font-size="8px" fill="#000000" x="81.19923109817682" y="3" font-family="sans-serif">HAS_COLOR</text></g><g class="relationship" transform="translate(-5.674185068387056 152.52543500707782) rotate(338.9255518372853)"><path class="outline" fill="#A5ABB6" stroke="none" d="M 25 0.5 L 29.156103674369334 0.5 L 29.156103674369334 -0.5 L 25 -0.5 Z M 83.15610367436933 0.5 L 87.31220734873867 0.5 L 87.31220734873867 3.5 L 94.31220734873867 0 L 87.31220734873867 -3.5 L 87.31220734873867 -0.5 L 83.15610367436933 -0.5 Z"></path><text text-anchor="middle" pointer-events="none" font-size="8px" fill="#000000" x="56.156103674369334" y="3" font-family="sans-serif">HAS_COLOR</text></g><g class="relationship" transform="translate(-48.69533419294601 194.32607553360836) rotate(331.2437142015297)"><path class="outline" fill="#A5ABB6" stroke="none" d="M 25 0.5 L 57.53331787291414 0.5 L 57.53331787291414 -0.5 L 25 -0.5 Z M 111.53331787291414 0.5 L 144.06663574582828 0.5 L 144.06663574582828 3.5 L 151.06663574582828 0 L 144.06663574582828 -3.5 L 144.06663574582828 -0.5 L 111.53331787291414 -0.5 Z"></path><text text-anchor="middle" pointer-events="none" font-size="8px" fill="#000000" x="84.53331787291414" y="3" font-family="sans-serif">HAS_COLOR</text></g><g class="relationship" transform="translate(47.50583598246 214.4097554097645) rotate(299.0282917054818)"><path class="outline" fill="#A5ABB6" stroke="none" d="M 25 0.5 L 29.42055135631749 0.5 L 29.42055135631749 -0.5 L 25 -0.5 Z M 83.42055135631749 0.5 L 87.84110271263498 0.5 L 87.84110271263498 3.5 L 94.84110271263498 0 L 87.84110271263498 -3.5 L 87.84110271263498 -0.5 L 83.42055135631749 -0.5 Z"></path><text text-anchor="middle" pointer-events="none" font-size="8px" fill="#000000" x="56.42055135631749" y="3" font-family="sans-serif">HAS_COLOR</text></g><g class="relationship" transform="translate(-5.60464275681199 242.27630035277792) rotate(309.9881024499821)"><path class="outline" fill="#A5ABB6" stroke="none" d="M 25 0.5 L 56.0681671577198 0.5 L 56.0681671577198 -0.5 L 25 -0.5 Z M 110.0681671577198 0.5 L 141.1363343154396 0.5 L 141.1363343154396 3.5 L 148.1363343154396 0 L 141.1363343154396 -3.5 L 141.1363343154396 -0.5 L 110.0681671577198 -0.5 Z"></path><text text-anchor="middle" pointer-events="none" font-size="8px" fill="#000000" x="83.0681671577198" y="3" font-family="sans-serif">HAS_COLOR</text></g><g class="relationship" transform="translate(55.8480360118389 273.8129676352606) rotate(286.87602468462734)"><path class="outline" fill="#A5ABB6" stroke="none" d="M 25 0.5 L 55.28946114822334 0.5 L 55.28946114822334 -0.5 L 25 -0.5 Z M 109.28946114822334 0.5 L 139.57892229644668 0.5 L 139.57892229644668 3.5 L 146.57892229644668 0 L 139.57892229644668 -3.5 L 139.57892229644668 -0.5 L 109.28946114822334 -0.5 Z"></path><text text-anchor="middle" pointer-events="none" font-size="8px" fill="#000000" x="82.28946114822334" y="3" font-family="sans-serif">HAS_COLOR</text></g></g><g class="layer nodes"><g class="node" transform="translate(115.73808804572599,277.2279178836909)"><circle class="outline" cx="0" cy="0" r="25" fill="#6DCE9E" stroke="#60B58B" stroke-width="2px"></circle><text text-anchor="middle" pointer-events="none" y="5" font-size="10px" fill="#FFFFFF" font-family="sans-serif"> blue</text></g><g class="node" transform="translate(105.65770449427325,109.62306690418613)"><circle class="outline" cx="0" cy="0" r="25" fill="#68BDF6" stroke="#5CA8DB" stroke-width="2px"></circle><text text-anchor="middle" pointer-events="none" y="5" font-size="10px" fill="#FFFFFF" font-family="sans-serif"> blue</text></g><g class="node" transform="translate(143.21126863447614,223.81574699978705)"><circle class="outline" cx="0" cy="0" r="25" fill="#6DCE9E" stroke="#60B58B" stroke-width="2px"></circle><text text-anchor="middle" pointer-events="none" y="5" font-size="10px" fill="#FFFFFF" font-family="sans-serif"> blue</text></g><g class="node" transform="translate(184.33985050388983,267.47636036995345)"><circle class="outline" cx="0" cy="0" r="25" fill="#6DCE9E" stroke="#60B58B" stroke-width="2px"></circle><text text-anchor="middle" pointer-events="none" y="5" font-size="10px" fill="#FFFFFF" font-family="sans-serif"> blue</text></g><g class="node" transform="translate(268.6535270935575,181.84206636730903)"><circle class="outline" cx="0" cy="0" r="25" fill="#6DCE9E" stroke="#60B58B" stroke-width="2px"></circle><text text-anchor="middle" pointer-events="none" y="5" font-size="10px" fill="#FFFFFF" font-family="sans-serif"> blue</text></g><g class="node" transform="translate(222.66562101346304,221.3278373810773)"><circle class="outline" cx="0" cy="0" r="25" fill="#6DCE9E" stroke="#60B58B" stroke-width="2px"></circle><text text-anchor="middle" pointer-events="none" y="5" font-size="10px" fill="#FFFFFF" font-family="sans-serif"> blue</text></g><g class="node" transform="translate(270.83728743320245,114.79721634421361)"><circle class="outline" cx="0" cy="0" r="25" fill="#6DCE9E" stroke="#60B58B" stroke-width="2px"></circle><text text-anchor="middle" pointer-events="none" y="5" font-size="10px" fill="#FFFFFF" font-family="sans-serif"> blue</text></g><g class="node" transform="translate(217.65191215612725,150.28332923498036)"><circle class="outline" cx="0" cy="0" r="25" fill="#6DCE9E" stroke="#60B58B" stroke-width="2px"></circle><text text-anchor="middle" pointer-events="none" y="5" font-size="10px" fill="#FFFFFF" font-family="sans-serif"> blue</text></g><g class="node" transform="translate(272.0792086619924,54.821722533138825)"><circle class="outline" cx="0" cy="0" r="25" fill="#6DCE9E" stroke="#60B58B" stroke-width="2px"></circle><text text-anchor="middle" pointer-events="none" y="5" font-size="10px" fill="#FFFFFF" font-family="sans-serif"> blue</text></g><g class="node" transform="translate(212.10864229822042,53.68442682943143)"><circle class="outline" cx="0" cy="0" r="25" fill="#6DCE9E" stroke="#60B58B" stroke-width="2px"></circle><text text-anchor="middle" pointer-events="none" y="5" font-size="10px" fill="#FFFFFF" font-family="sans-serif"> blue</text></g><g class="node" transform="translate(235.05976318570325,-3.0311098191776797)"><circle class="outline" cx="0" cy="0" r="25" fill="#6DCE9E" stroke="#60B58B" stroke-width="2px"></circle><text text-anchor="middle" pointer-events="none" y="5" font-size="10px" fill="#FFFFFF" font-family="sans-serif"> blue</text></g><g class="node" transform="translate(148.4727703359341,-1.9438914789847435)"><circle class="outline" cx="0" cy="0" r="25" fill="#6DCE9E" stroke="#60B58B" stroke-width="2px"></circle><text text-anchor="middle" pointer-events="none" y="5" font-size="10px" fill="#FFFFFF" font-family="sans-serif"> blue</text></g><g class="node" transform="translate(190.12411205845765,-45.12750697405146)"><circle class="outline" cx="0" cy="0" r="25" fill="#6DCE9E" stroke="#60B58B" stroke-width="2px"></circle><text text-anchor="middle" pointer-events="none" y="5" font-size="10px" fill="#FFFFFF" font-family="sans-serif"> blue</text></g><g class="node" transform="translate(67.29576120457595,-57.77647409906018)"><circle class="outline" cx="0" cy="0" r="25" fill="#6DCE9E" stroke="#60B58B" stroke-width="2px"></circle><text text-anchor="middle" pointer-events="none" y="5" font-size="10px" fill="#FFFFFF" font-family="sans-serif"> blue</text></g><g class="node" transform="translate(127.22119000898586,-60.12748846748407)"><circle class="outline" cx="0" cy="0" r="25" fill="#6DCE9E" stroke="#60B58B" stroke-width="2px"></circle><text text-anchor="middle" pointer-events="none" y="5" font-size="10px" fill="#FFFFFF" font-family="sans-serif"> blue</text></g><g class="node" transform="translate(55.53316475767283,2.9838298466260573)"><circle class="outline" cx="0" cy="0" r="25" fill="#6DCE9E" stroke="#60B58B" stroke-width="2px"></circle><text text-anchor="middle" pointer-events="none" y="5" font-size="10px" fill="#FFFFFF" font-family="sans-serif"> blue</text></g><g class="node" transform="translate(8.183272516732757,-35.201849503600165)"><circle class="outline" cx="0" cy="0" r="25" fill="#6DCE9E" stroke="#60B58B" stroke-width="2px"></circle><text text-anchor="middle" pointer-events="none" y="5" font-size="10px" fill="#FFFFFF" font-family="sans-serif"> blue</text></g><g class="node" transform="translate(-34.657925610273544,6.965106440846833)"><circle class="outline" cx="0" cy="0" r="25" fill="#6DCE9E" stroke="#60B58B" stroke-width="2px"></circle><text text-anchor="middle" pointer-events="none" y="5" font-size="10px" fill="#FFFFFF" font-family="sans-serif"> blue</text></g><g class="node" transform="translate(-63.28102599716361,68.16703646127404)"><circle class="outline" cx="0" cy="0" r="25" fill="#6DCE9E" stroke="#60B58B" stroke-width="2px"></circle><text text-anchor="middle" pointer-events="none" y="5" font-size="10px" fill="#FFFFFF" font-family="sans-serif"> blue</text></g><g class="node" transform="translate(-3.7790855727221184,60.48367266542618)"><circle class="outline" cx="0" cy="0" r="25" fill="#6DCE9E" stroke="#60B58B" stroke-width="2px"></circle><text text-anchor="middle" pointer-events="none" y="5" font-size="10px" fill="#FFFFFF" font-family="sans-serif"> blue</text></g><g class="node" transform="translate(-62.72460254889944,128.14974143870992)"><circle class="outline" cx="0" cy="0" r="25" fill="#6DCE9E" stroke="#60B58B" stroke-width="2px"></circle><text text-anchor="middle" pointer-events="none" y="5" font-size="10px" fill="#FFFFFF" font-family="sans-serif"> blue</text></g><g class="node" transform="translate(-5.674185068387056,152.52543500707782)"><circle class="outline" cx="0" cy="0" r="25" fill="#6DCE9E" stroke="#60B58B" stroke-width="2px"></circle><text text-anchor="middle" pointer-events="none" y="5" font-size="10px" fill="#FFFFFF" font-family="sans-serif"> blue</text></g><g class="node" transform="translate(-48.69533419294601,194.32607553360836)"><circle class="outline" cx="0" cy="0" r="25" fill="#6DCE9E" stroke="#60B58B" stroke-width="2px"></circle><text text-anchor="middle" pointer-events="none" y="5" font-size="10px" fill="#FFFFFF" font-family="sans-serif"> blue</text></g><g class="node" transform="translate(47.50583598246,214.4097554097645)"><circle class="outline" cx="0" cy="0" r="25" fill="#6DCE9E" stroke="#60B58B" stroke-width="2px"></circle><text text-anchor="middle" pointer-events="none" y="5" font-size="10px" fill="#FFFFFF" font-family="sans-serif"> blue</text></g><g class="node" transform="translate(-5.60464275681199,242.27630035277792)"><circle class="outline" cx="0" cy="0" r="25" fill="#6DCE9E" stroke="#60B58B" stroke-width="2px"></circle><text text-anchor="middle" pointer-events="none" y="5" font-size="10px" fill="#FFFFFF" font-family="sans-serif"> blue</text></g><g class="node" transform="translate(55.8480360118389,273.8129676352606)"><circle class="outline" cx="0" cy="0" r="25" fill="#6DCE9E" stroke="#60B58B" stroke-width="2px"></circle><text text-anchor="middle" pointer-events="none" y="5" font-size="10px" fill="#FFFFFF" font-family="sans-serif"> blue</text></g></g></svg>