<?xml version="1.0"?>
<svg xmlns="http://www.w3.org/2000/svg" width="407.6396484375" height="313.38470458984375" viewBox="-84.30158996582031 -44.86064910888672 407.6396484375 313.38470458984375"><title>Neo4j Graph Visualization</title><desc>Created using Neo4j (http://www.neo4j.com/)</desc><g class="layer relationships"><g class="relationship" transform="translate(294.33803426195294 50.12621777297826) rotate(201.63437834363668)"><path class="outline" fill="#DE9BF9" stroke="none" d="M 25 6.5 L 63.47459137256568 6.5 L 63.47459137256568 9.5 L 82.47459137256568 0 L 63.47459137256568 -9.5 L 63.47459137256568 -6.5 L 25 -6.5 Z"></path><text text-anchor="middle" pointer-events="none" font-size="8px" fill="#FFFFFF" x="44.23729568628284" y="3" transform="rotate(180 44.23729568628284 0)" font-family="sans-serif">1</text></g><g class="relationship" transform="translate(164.5920902498211 174.4694815705467) rotate(238.485475431169)"><path class="outline" fill="#DE9BF9" stroke="none" d="M 25 6.5 L 70.33729945646743 6.5 L 70.33729945646743 9.5 L 89.33729945646743 0 L 70.33729945646743 -9.5 L 70.33729945646743 -6.5 L 25 -6.5 Z"></path><text text-anchor="middle" pointer-events="none" font-size="8px" fill="#FFFFFF" x="47.66864972823372" y="3" transform="rotate(180 47.66864972823372 0)" font-family="sans-serif">2</text></g><g class="relationship" transform="translate(194.43444338608043 10.502231088064084) rotate(503.42269443553766)"><path class="outline" fill="#A5ABB6" stroke="none" d="M 25 6.5 L 67.58426118866754 6.5 L 67.58426118866754 9.5 L 86.58426118866754 0 L 67.58426118866754 -9.5 L 67.58426118866754 -6.5 L 25 -6.5 Z"></path><text text-anchor="middle" pointer-events="none" font-size="8px" fill="#FFFFFF" x="46.29213059433377" y="3" transform="rotate(180 46.29213059433377 0)" font-family="sans-serif">1</text></g><g class="relationship" transform="translate(104.82630380573259 76.99605535746278) rotate(511.4669920728783)"><path class="outline" fill="#A5ABB6" stroke="none" d="M 25 6.5 L 68.9929099947636 6.5 L 68.9929099947636 9.5 L 87.9929099947636 0 L 68.9929099947636 -9.5 L 68.9929099947636 -6.5 L 25 -6.5 Z"></path><text text-anchor="middle" pointer-events="none" font-size="8px" fill="#FFFFFF" x="46.9964549973818" y="3" transform="rotate(180 46.9964549973818 0)" font-family="sans-serif">2</text></g><g class="relationship" transform="translate(104.82630380573259 76.99605535746278) rotate(235.0712224321798)"><path class="outline" fill="#A5ABB6" stroke="none" d="M 25 6.5 L 69.25861100292028 6.5 L 69.25861100292028 9.5 L 88.25861100292028 0 L 69.25861100292028 -9.5 L 69.25861100292028 -6.5 L 25 -6.5 Z"></path><text text-anchor="middle" pointer-events="none" font-size="8px" fill="#FFFFFF" x="47.12930550146014" y="3" transform="rotate(180 47.12930550146014 0)" font-family="sans-serif">1</text></g><g class="relationship" transform="translate(39.97921019549944 -15.860648313389497) rotate(510.156893206348)"><path class="outline" fill="#A5ABB6" stroke="none" d="M 25 6.5 L 65.84753478404733 6.5 L 65.84753478404733 9.5 L 84.84753478404733 0 L 65.84753478404733 -9.5 L 65.84753478404733 -6.5 L 25 -6.5 Z"></path><text text-anchor="middle" pointer-events="none" font-size="8px" fill="#FFFFFF" x="45.42376739202366" y="3" transform="rotate(180 45.42376739202366 0)" font-family="sans-serif">1</text></g><g class="relationship" transform="translate(-55.301586541593494 38.80241665078231) rotate(416.56261329932346)"><path class="outline" fill="#A5ABB6" stroke="none" d="M 25 6.5 L 66.44657262910026 6.5 L 66.44657262910026 9.5 L 85.44657262910026 0 L 66.44657262910026 -9.5 L 66.44657262910026 -6.5 L 25 -6.5 Z"></path><text text-anchor="middle" pointer-events="none" font-size="8px" fill="#FFFFFF" x="45.72328631455013" y="3" font-family="sans-serif">1</text></g><g class="relationship" transform="translate(5.557277960348431 130.96880975070454) rotate(457.8279298176866)"><path class="outline" fill="#A5ABB6" stroke="none" d="M 25 6.5 L 65.5762959322223 6.5 L 65.5762959322223 9.5 L 84.5762959322223 0 L 65.5762959322223 -9.5 L 65.5762959322223 -6.5 L 25 -6.5 Z"></path><text text-anchor="middle" pointer-events="none" font-size="8px" fill="#FFFFFF" x="45.28814796611115" y="3" transform="rotate(180 45.28814796611115 0)" font-family="sans-serif">2</text></g></g><g class="layer nodes"><g class="node" transform="translate(294.33803426195294,50.12621777297826)"><circle class="outline" cx="0" cy="0" r="25" fill="#68BDF6" stroke="#5CA8DB" stroke-width="2px"></circle><text text-anchor="middle" pointer-events="none" y="5" font-size="10px" fill="#FFFFFF" font-family="sans-serif"> Anna</text></g><g class="node" transform="translate(164.5920902498211,174.4694815705467)"><circle class="outline" cx="0" cy="0" r="25" fill="#68BDF6" stroke="#5CA8DB" stroke-width="2px"></circle><text text-anchor="middle" pointer-events="none" y="5" font-size="10px" fill="#FFFFFF" font-family="sans-serif"> Kasia</text></g><g class="node" transform="translate(194.43444338608043,10.502231088064084)"><circle class="outline" cx="0" cy="0" r="25" fill="#6DCE9E" stroke="#60B58B" stroke-width="2px"></circle><text text-anchor="middle" pointer-events="none" y="5" font-size="10px" fill="#FFFFFF" font-family="sans-serif"> Item1</text></g><g class="node" transform="translate(104.82630380573259,76.99605535746278)"><circle class="outline" cx="0" cy="0" r="25" fill="#6DCE9E" stroke="#60B58B" stroke-width="2px"></circle><text text-anchor="middle" pointer-events="none" y="5" font-size="10px" fill="#FFFFFF" font-family="sans-serif"> Item2</text></g><g class="node" transform="translate(39.97921019549944,-15.860648313389497)"><circle class="outline" cx="0" cy="0" r="25" fill="#6DCE9E" stroke="#60B58B" stroke-width="2px"></circle><text text-anchor="middle" pointer-events="none" y="5" font-size="10px" fill="#FFFFFF" font-family="sans-serif"> Item3</text></g><g class="node" transform="translate(-55.301586541593494,38.80241665078231)"><circle class="outline" cx="0" cy="0" r="25" fill="#6DCE9E" stroke="#60B58B" stroke-width="2px"></circle><text text-anchor="middle" pointer-events="none" y="5" font-size="10px" fill="#FFFFFF" font-family="sans-serif"> Item4</text></g><g class="node" transform="translate(5.557277960348431,130.96880975070454)"><circle class="outline" cx="0" cy="0" r="25" fill="#6DCE9E" stroke="#60B58B" stroke-width="2px"></circle><text text-anchor="middle" pointer-events="none" y="5" font-size="10px" fill="#FFFFFF" font-family="sans-serif"> Item5</text></g><g class="node" transform="translate(-9.36685065427696,239.52402618602872)"><circle class="outline" cx="0" cy="0" r="25" fill="#6DCE9E" stroke="#60B58B" stroke-width="2px"></circle><text text-anchor="middle" pointer-events="none" y="5" font-size="10px" fill="#FFFFFF" font-family="sans-serif"> Item6</text></g></g></svg>