<?xml version="1.0"?>
<svg xmlns="http://www.w3.org/2000/svg" width="337.0010986328125" height="83.02194213867188" viewBox="-238.30813598632812 39.23586654663086 337.0010986328125 83.02194213867188"><title>Neo4j Graph Visualization</title><desc>Created using Neo4j (http://www.neo4j.com/)</desc><g class="layer relationships"><g class="relationship" transform="translate(62.192966010220005 80.0735836226621) rotate(539.7077457285438)"><path class="outline" fill="#A5ABB6" stroke="none" d="M 29.710265561228333,-14.690136836710867 L 33.074913147561105,-2.1331010949529796 A 370.54722516150684 370.54722516150684 0 0 1 212.3627039832909,-5.255596408567373 L 211.68762313373634,-2.332538789127641 L 232.33807741377746,-7.313375870174501 L 215.9631351809153,-20.84523704557928 L 215.2880543313607,-17.922179426139547 A 383.54722516150684 383.54722516150684 0 0 0 29.710265561228333,-14.690136836710867"></path><text text-anchor="middle" pointer-events="none" font-size="8px" fill="#FFFFFF" x="122.41389306714925" y="-18.202021490052744" transform="rotate(180 122.41389306714925 -21.202021490052744)" font-family="sans-serif">IS_PARENT</text></g><g class="relationship" transform="translate(-201.80813449969034 81.4202119276309) rotate(359.70774572854384)"><path class="outline" fill="#A5ABB6" stroke="none" d="M 29.710265561228333,-14.690136836710867 L 33.074913147561105,-2.1331010949529796 A 370.54722516150684 370.54722516150684 0 0 1 212.3627039832909,-5.255596408567373 L 211.68762313373634,-2.332538789127641 L 232.33807741377746,-7.313375870174501 L 215.9631351809153,-20.84523704557928 L 215.2880543313607,-17.922179426139547 A 383.54722516150684 383.54722516150684 0 0 0 29.710265561228333,-14.690136836710867"></path><text text-anchor="middle" pointer-events="none" font-size="8px" fill="#FFFFFF" x="122.41389306714925" y="-18.202021490052744" font-family="sans-serif">IS_CHILD</text></g></g><g class="layer nodes"><g class="node" transform="translate(62.192966010220005,80.0735836226621)"><circle class="outline" cx="0" cy="0" r="32.5" fill="#FF756E" stroke="#E06760" stroke-width="2px"></circle><text text-anchor="middle" pointer-events="none" y="5" font-size="10px" fill="#FFFFFF" font-family="sans-serif"> Jan</text></g><g class="node" transform="translate(-201.80813449969034,81.4202119276309)"><circle class="outline" cx="0" cy="0" r="32.5" fill="#FF756E" stroke="#E06760" stroke-width="2px"></circle><text text-anchor="middle" pointer-events="none" y="5" font-size="10px" fill="#FFFFFF" font-family="sans-serif"> Ala</text></g></g></svg>