<?xml version="1.0"?>
<svg xmlns="http://www.w3.org/2000/svg" width="338.5094299316406" height="82.93502807617188" viewBox="-119.01998901367188 58.16099548339844 338.5094299316406 82.93502807617188"><title>Neo4j Graph Visualization</title><desc>Created using Neo4j (http://www.neo4j.com/)</desc><g class="layer relationships"><g class="relationship" transform="translate(182.9894457755417 99.27532803008184) rotate(539.8475656701867)"><path class="outline" fill="#A5ABB6" stroke="none" d="M 29.710265561228333,14.690136836710867 L 33.074913147561105,2.1331010949529796 A 373.5225194255827 373.5225194255827 0 0 0 213.86951518499808,5.265135731631042 L 213.19389439218926,2.3422028647447046 L 233.84526839303066,7.319225255428916 L 217.47282607997843,20.85411102169151 L 216.79720528716962,17.93117815480517 A 386.5225194255827 386.5225194255827 0 0 1 29.710265561228333,14.690136836710867"></path><text text-anchor="middle" pointer-events="none" font-size="8px" fill="#FFFFFF" x="123.1672397800407" y="24.30356063304879" transform="rotate(180 123.1672397800407 21.30356063304879)" font-family="sans-serif">IS_MARIED_WITH</text></g><g class="relationship" transform="translate(-82.51998901367188 99.98171248957038) rotate(359.84756567018667)"><path class="outline" fill="#A5ABB6" stroke="none" d="M 29.710265561228333,14.690136836710867 L 33.074913147561105,2.1331010949529796 A 373.5225194255827 373.5225194255827 0 0 0 213.86951518499808,5.265135731631042 L 213.19389439218926,2.3422028647447046 L 233.84526839303066,7.319225255428916 L 217.47282607997843,20.85411102169151 L 216.79720528716962,17.93117815480517 A 386.5225194255827 386.5225194255827 0 0 1 29.710265561228333,14.690136836710867"></path><text text-anchor="middle" pointer-events="none" font-size="8px" fill="#FFFFFF" x="123.1672397800407" y="24.30356063304879" font-family="sans-serif">IS_MARIED_WITH</text></g></g><g class="layer nodes"><g class="node" transform="translate(-82.51998901367188,99.98171248957038)"><circle class="outline" cx="0" cy="0" r="32.5" fill="#FF756E" stroke="#E06760" stroke-width="2px"></circle><text text-anchor="middle" pointer-events="none" y="5" font-size="10px" fill="#FFFFFF" font-family="sans-serif"> Jan</text></g><g class="node" transform="translate(182.9894457755417,99.27532803008184)"><circle class="outline" cx="0" cy="0" r="32.5" fill="#FF756E" stroke="#E06760" stroke-width="2px"></circle><text text-anchor="middle" pointer-events="none" y="5" font-size="10px" fill="#FFFFFF" font-family="sans-serif"> Ala</text></g></g></svg>