<?xml version="1.0"?>
<svg xmlns="http://www.w3.org/2000/svg" width="426.85150146484375" height="67.10740661621094" viewBox="-107.66732788085938 80.50700378417969 426.85150146484375 67.10740661621094"><title>Neo4j Graph Visualization</title><desc>Created using Neo4j (http://www.neo4j.com/)</desc><g class="layer relationships"><g class="relationship" transform="translate(104.94464386834454 111.46518434539978) rotate(360.42781255773104)"><path class="outline" fill="#A5ABB6" stroke="none" d="M 23.112869476816623,10.334179432719292 L 25.18342183763679,2.6067728224067452 A 251.21990025622225 251.21990025622225 0 0 0 56.199652805530164,8.854894438161722 L 55.11680025467759,16.781270050830585 A 259.2199002562222 259.2199002562222 0 0 1 23.112869476816623,10.334179432719292 Z M 115.9068272656796,17.88945161201798 L 115.11358845314795,9.9288754905119 A 251.21990025622225 251.21990025622225 0 0 0 146.33693820390314,4.815360308078024 L 145.666612864064,1.8912084757051604 L 160.8767472080953,5.586044498659296 L 148.79479778331324,15.537250360111855 L 148.1244724434741,12.613098527738991 A 259.2199002562222 259.2199002562222 0 0 1 115.9068272656796,17.88945161201798"></path><text text-anchor="middle" pointer-events="none" font-size="8px" fill="#000000" x="85.55211724882402" y="18.12448650432546" font-family="sans-serif">ENDS_FLIGHT</text></g><g class="relationship selected" transform="translate(-78.66733125139183 118.6144087860084) rotate(357.7702240156716)"><path class="outline" fill="#A5ABB6" stroke="none" d="M 25 2.5 L 59.37555281122515 2.5 L 59.37555281122515 -2.5 L 25 -2.5 Z M 113.37555281122515 2.5 L 147.7511056224503 2.5 L 147.7511056224503 5.5 L 158.7511056224503 0 L 147.7511056224503 -5.5 L 147.7511056224503 -2.5 L 113.37555281122515 -2.5 Z"></path><text text-anchor="middle" pointer-events="none" font-size="8px" fill="#000000" x="86.37555281122515" y="3" font-family="sans-serif">HAS_FLIGHT</text></g><g class="relationship" transform="translate(290.18415914025695 112.84834492499493) rotate(180.42781255773104)"><path class="outline" fill="#A5ABB6" stroke="none" d="M 23.112869476816623,10.334179432719292 L 25.18342183763679,2.6067728224067452 A 251.21990025622225 251.21990025622225 0 0 0 52.17558592017169,8.271940261362005 L 50.96458852470277,16.179751925037806 A 259.2199002562222 259.2199002562222 0 0 1 23.112869476816623,10.334179432719292 Z M 120.07820383898405,17.439669676093047 L 119.1562287197358,9.492974647372819 A 251.21990025622225 251.21990025622225 0 0 0 146.33693820390314,4.815360308078024 L 145.666612864064,1.8912084757051604 L 160.8767472080953,5.586044498659296 L 148.79479778331324,15.537250360111855 L 148.1244724434741,12.613098527738991 A 259.2199002562222 259.2199002562222 0 0 1 120.07820383898405,17.439669676093047"></path><text text-anchor="middle" pointer-events="none" font-size="8px" fill="#000000" x="85.55211724882402" y="18.12448650432546" transform="rotate(180 85.55211724882402 15.12448650432546)" font-family="sans-serif">STARTS_FLIGHT</text></g></g><g class="layer nodes"><g class="node" transform="translate(290.18415914025695,112.84834492499493)"><circle class="outline" cx="0" cy="0" r="25" fill="#68BDF6" stroke="#5CA8DB" stroke-width="2px"></circle><text text-anchor="middle" pointer-events="none" y="5" font-size="10px" fill="#FFFFFF" font-family="sans-serif"> City</text></g><g class="node" transform="translate(104.94464386834454,111.46518434539978)"><circle class="outline" cx="0" cy="0" r="25" fill="#DE9BF9" stroke="#BF85D6" stroke-width="2px"></circle><text text-anchor="middle" pointer-events="none" y="5" font-size="10px" fill="#FFFFFF" font-family="sans-serif"> Flight</text></g><g class="node" transform="translate(-78.66733125139183,118.6144087860084)"><circle class="outline" cx="0" cy="0" r="25" fill="#6DCE9E" stroke="#60B58B" stroke-width="2px"></circle><text text-anchor="middle" pointer-events="none" y="5" font-size="10px" fill="#FFFFFF" font-family="sans-serif"> Airline</text></g></g></svg>