<?xml version="1.0"?>
<svg xmlns="http://www.w3.org/2000/svg" width="394.2013854980469" height="303.0783996582031" viewBox="-74.1085433959961 -33.97243118286133 394.2013854980469 303.0783996582031"><title>Neo4j Graph Visualization</title><desc>Created using Neo4j (http://www.neo4j.com/)</desc><g class="layer relationships"><g class="relationship" transform="translate(235.55748998666007 -4.259604337940658) rotate(180.36633962346872)"><path class="outline" fill="#DE9BF9" stroke="none" d="M 25 6.5 L 67.48757212276965 6.5 L 67.48757212276965 9.5 L 86.48757212276965 0 L 67.48757212276965 -9.5 L 67.48757212276965 -6.5 L 25 -6.5 Z"></path><text text-anchor="middle" pointer-events="none" font-size="8px" fill="#FFFFFF" x="46.243786061384824" y="3" transform="rotate(180 46.243786061384824 0)" font-family="sans-serif">HAS_B…</text></g><g class="relationship" transform="translate(-37.37295329880649 6.779327152221413) rotate(398.8643307123191)"><path class="outline" fill="#DE9BF9" stroke="none" d="M 25 6.5 L 90.2119854002496 6.5 L 90.2119854002496 9.5 L 109.2119854002496 0 L 90.2119854002496 -9.5 L 90.2119854002496 -6.5 L 25 -6.5 Z"></path><text text-anchor="middle" pointer-events="none" font-size="8px" fill="#FFFFFF" x="57.6059927001248" y="3" font-family="sans-serif">HAS_BASKET</text></g><g class="relationship" transform="translate(124.07219672316535 -4.972432355305831) rotate(480.68330097746764)"><path class="outline" fill="#A5ABB6" stroke="none" d="M 25 6.5 L 67.58926951146547 6.5 L 67.58926951146547 9.5 L 86.58926951146547 0 L 67.58926951146547 -9.5 L 67.58926951146547 -6.5 L 25 -6.5 Z"></path><text text-anchor="middle" pointer-events="none" font-size="8px" fill="#FFFFFF" x="46.29463475573274" y="3" transform="rotate(180 46.29463475573274 0)" font-family="sans-serif">NEXT</text></g><g class="relationship" transform="translate(67.1290528702309 90.99445484151062) rotate(511.36866238758927)"><path class="outline" fill="#A5ABB6" stroke="none" d="M 25 6.5 L 83.87388488820783 6.5 L 83.87388488820783 9.5 L 102.87388488820783 0 L 83.87388488820783 -9.5 L 83.87388488820783 -6.5 L 25 -6.5 Z"></path><text text-anchor="middle" pointer-events="none" font-size="8px" fill="#FFFFFF" x="54.43694244410391" y="3" transform="rotate(180 54.43694244410391 0)" font-family="sans-serif">NEXT</text></g><g class="relationship" transform="translate(67.1290528702309 90.99445484151062) rotate(411.76324866140254)"><path class="outline" fill="#A5ABB6" stroke="none" d="M 25 6.5 L 119.3261337463558 6.5 L 119.3261337463558 9.5 L 138.3261337463558 0 L 119.3261337463558 -9.5 L 119.3261337463558 -6.5 L 25 -6.5 Z"></path><text text-anchor="middle" pointer-events="none" font-size="8px" fill="#FFFFFF" x="72.1630668731779" y="3" font-family="sans-serif">NEXT</text></g><g class="relationship" transform="translate(-45.10854460196473 152.2680392810716) rotate(412.5005192005581)"><path class="outline" fill="#A5ABB6" stroke="none" d="M 25 6.5 L 66.71652350286301 6.5 L 66.71652350286301 9.5 L 85.71652350286301 0 L 66.71652350286301 -9.5 L 66.71652350286301 -6.5 L 25 -6.5 Z"></path><text text-anchor="middle" pointer-events="none" font-size="8px" fill="#FFFFFF" x="45.858261751431506" y="3" font-family="sans-serif">NEXT</text></g><g class="relationship" transform="translate(22.290608497070494 240.1059737860042) rotate(351.8778938021451)"><path class="outline" fill="#A5ABB6" stroke="none" d="M 25 6.5 L 103.4015567675882 6.5 L 103.4015567675882 9.5 L 122.4015567675882 0 L 103.4015567675882 -9.5 L 103.4015567675882 -6.5 L 25 -6.5 Z"></path><text text-anchor="middle" pointer-events="none" font-size="8px" fill="#FFFFFF" x="64.2007783837941" y="3" font-family="sans-serif">NEXT</text></g><g class="relationship" transform="translate(168.21361277725393 219.280610419328) rotate(355.88709819449616)"><path class="outline" fill="#A5ABB6" stroke="none" d="M 25 6.5 L 79.19650627933007 6.5 L 79.19650627933007 9.5 L 98.19650627933007 0 L 79.19650627933007 -9.5 L 79.19650627933007 -6.5 L 25 -6.5 Z"></path><text text-anchor="middle" pointer-events="none" font-size="8px" fill="#FFFFFF" x="52.09825313966503" y="3" font-family="sans-serif">NEXT</text></g></g><g class="layer nodes"><g class="node" transform="translate(235.55748998666007,-4.259604337940658)"><circle class="outline" cx="0" cy="0" r="25" fill="#68BDF6" stroke="#5CA8DB" stroke-width="2px"></circle><text text-anchor="middle" pointer-events="none" y="5" font-size="10px" fill="#FFFFFF" font-family="sans-serif"> Anna</text></g><g class="node" transform="translate(-37.37295329880649,6.779327152221413)"><circle class="outline" cx="0" cy="0" r="25" fill="#68BDF6" stroke="#5CA8DB" stroke-width="2px"></circle><text text-anchor="middle" pointer-events="none" y="5" font-size="10px" fill="#FFFFFF" font-family="sans-serif"> Kasia</text></g><g class="node" transform="translate(124.07219672316535,-4.972432355305831)"><circle class="outline" cx="0" cy="0" r="25" fill="#6DCE9E" stroke="#60B58B" stroke-width="2px"></circle><text text-anchor="middle" pointer-events="none" y="5" font-size="10px" fill="#FFFFFF" font-family="sans-serif"> Item1</text></g><g class="node" transform="translate(67.1290528702309,90.99445484151062)"><circle class="outline" cx="0" cy="0" r="25" fill="#6DCE9E" stroke="#60B58B" stroke-width="2px"></circle><text text-anchor="middle" pointer-events="none" y="5" font-size="10px" fill="#FFFFFF" font-family="sans-serif"> Item2</text></g><g class="node" transform="translate(-45.10854460196473,152.2680392810716)"><circle class="outline" cx="0" cy="0" r="25" fill="#6DCE9E" stroke="#60B58B" stroke-width="2px"></circle><text text-anchor="middle" pointer-events="none" y="5" font-size="10px" fill="#FFFFFF" font-family="sans-serif"> Item3</text></g><g class="node" transform="translate(22.290608497070494,240.1059737860042)"><circle class="outline" cx="0" cy="0" r="25" fill="#6DCE9E" stroke="#60B58B" stroke-width="2px"></circle><text text-anchor="middle" pointer-events="none" y="5" font-size="10px" fill="#FFFFFF" font-family="sans-serif"> Item4</text></g><g class="node" transform="translate(168.21361277725393,219.280610419328)"><circle class="outline" cx="0" cy="0" r="25" fill="#6DCE9E" stroke="#60B58B" stroke-width="2px"></circle><text text-anchor="middle" pointer-events="none" y="5" font-size="10px" fill="#FFFFFF" font-family="sans-serif"> Item5</text></g><g class="node" transform="translate(291.09284591000113,210.44470502480414)"><circle class="outline" cx="0" cy="0" r="25" fill="#6DCE9E" stroke="#60B58B" stroke-width="2px"></circle><text text-anchor="middle" pointer-events="none" y="5" font-size="10px" fill="#FFFFFF" font-family="sans-serif"> Item6</text></g></g></svg>