<?xml version="1.0"?>
<svg width="555" height="353.1571350097656" xmlns="http://www.w3.org/2000/svg" viewBox="0 0 555 353.1571350097656">
 <title>Neo4j Graph Visualization</title>

 <desc>Created using Neo4j (http://www.neo4j.com/)</desc>
 <g>
  <title>background</title>
  <rect fill="none" id="canvas_background" height="355.157135" width="557" y="-1" x="-1"></rect>
 </g>
 <g>
  <title>Layer 1</title>
  <g id="svg_1" class="layer relationships">
   <g id="svg_2" transform="rotate(468.903076171875 89.5035400390625,77.4671401977539) " class="relationship">
    <path id="svg_3" d="m129.50354,83.96714l46.38555,0l0,3l19,-9.5l-19,-9.5l0,3l-46.38555,0l0,13z" fill="#A5ABB6" class="outline"></path>
    <text id="svg_4" font-family="sans-serif" transform="rotate(180 152.69631958007812,77.46714019775392) " y="80.46714" x="152.696314" fill="#FFFFFF" font-size="8px" text-anchor="middle">Flyes</text>
   </g>
   <g id="svg_5" transform="rotate(390.792236328125 89.5035400390625,77.46714019775389) " class="relationship">
    <path id="svg_6" d="m126.45825,60.83586l3.36465,12.55704a210.77118,210.77118 0 0 1 99.84767,-2.25711l-0.64472,2.9299l20.59767,-5.19481l-16.51445,-13.36125l-0.64472,2.92991a223.77118,223.77118 0 0 0 -106.0061,2.39632" fill="#A5ABB6" class="outline"></path>
    <text id="svg_7" font-family="sans-serif" y="62.766535" x="179.464215" fill="#FFFFFF" font-size="8px" text-anchor="middle">Flyes</text>
   </g>
   <g id="svg_8" transform="rotate(210.79222106933594 260.609619140625,179.43536376953128) " class="relationship">
    <path id="svg_9" d="m297.564329,162.804091l3.36465,12.55704a210.77118,210.77118 0 0 1 99.84767,-2.25711l-0.64472,2.9299l20.59767,-5.19481l-16.51445,-13.36125l-0.64472,2.92991a223.77118,223.77118 0 0 0 -106.0061,2.39632" fill="#A5ABB6" class="outline"></path>
    <text id="svg_10" font-family="sans-serif" transform="rotate(180 350.5703125,161.73477172851562) " y="164.734766" x="350.570294" fill="#FFFFFF" font-size="8px" text-anchor="middle">Flyes</text>
   </g>
   <g id="svg_11" transform="rotate(395.7134094238281 260.6096191406251,179.43536376953122) " class="relationship">
    <path id="svg_12" d="m300.609619,185.935371l118.87425,0l0,3l19,-9.5l-19,-9.5l0,3l-118.87425,0l0,13z" fill="#A5ABB6" class="outline"></path>
    <text id="svg_13" font-family="sans-serif" y="182.435371" x="360.046744" fill="#FFFFFF" font-size="8px" text-anchor="middle">Flyes</text>
   </g>
   <g id="svg_14" transform="rotate(354.40606689453125 260.6096191406254,179.43536376953142) " class="relationship">
    <path id="svg_15" d="m300.609619,185.935371l151.54838,0l0,3l19,-9.5l-19,-9.5l0,3l-151.54838,0l0,13z" fill="#A5ABB6" class="outline"></path>
    <text id="svg_16" font-family="sans-serif" y="182.435371" x="376.383807" fill="#FFFFFF" font-size="8px" text-anchor="middle">Flyes</text>
   </g>
   <g id="svg_17" transform="rotate(530.739990234375 260.609619140625,179.43536376953125) " class="relationship">
    <path id="svg_18" d="m300.609619,185.935371l122.08756,0l0,3l19,-9.5l-19,-9.5l0,3l-122.08756,0l0,13z" fill="#A5ABB6" class="outline"></path>
    <text id="svg_19" font-family="sans-serif" transform="rotate(180 361.65338134765625,179.43536376953125) " y="182.435371" x="361.653399" fill="#FFFFFF" font-size="8px" text-anchor="middle">Flyes</text>
   </g>
   <g id="svg_20" transform="rotate(464.4446716308594 296.1508178710937,41.45822143554688) " class="relationship">
    <path id="svg_21" d="m336.150826,47.958221l43.48113,0l0,3l19,-9.5l-19,-9.5l0,3l-43.48113,0l0,13z" fill="#A5ABB6" class="outline"></path>
    <text id="svg_22" font-family="sans-serif" transform="rotate(180 357.891357421875,41.458221435546875) " y="44.458221" x="357.89139" fill="#FFFFFF" font-size="8px" text-anchor="middle">Flyes</text>
   </g>
  </g>
  <g id="svg_23" class="layer nodes">
   <g id="svg_24" class="node">
    <circle id="svg_25" stroke-width="2px" stroke="#5CA8DB" fill="#68BDF6" r="40" cy="77.46714" cx="88.50354" class="outline"></circle>
    <text id="svg_26" x="88.50354" font-family="sans-serif" fill="#FFFFFF" font-size="10px" y="82.46714" text-anchor="middle">San Francisco</text>
   </g>
   <g id="svg_27" class="node">
    <circle id="svg_28" stroke-width="2px" stroke="#5CA8DB" fill="#68BDF6" r="40" cy="306.615356" cx="436.511963" class="outline"></circle>
    <text id="svg_29" x="436.511963" font-family="sans-serif" fill="#FFFFFF" font-size="10px" y="311.615356" text-anchor="middle">Washington</text>
   </g>
   <g id="svg_30" class="node">
    <circle id="svg_31" stroke-width="2px" stroke="#5CA8DB" fill="#68BDF6" r="40" cy="155.012524" cx="508.964813" class="outline"></circle>
    <text id="svg_32" x="508.964813" font-family="sans-serif" fill="#FFFFFF" font-size="10px" y="160.012524" text-anchor="middle">Las Vegas</text>
   </g>
   <g id="svg_33" class="node">
    <circle id="svg_34" stroke-width="2px" stroke="#5CA8DB" fill="#68BDF6" r="40" cy="179.435371" cx="259.609619" class="outline"></circle>
    <text id="svg_35" x="259.609619" font-family="sans-serif" fill="#FFFFFF" font-size="10px" y="184.435371" text-anchor="middle">New York</text>
   </g>
   <g id="svg_36" class="node">
    <circle id="svg_37" stroke-width="2px" stroke="#5CA8DB" fill="#68BDF6" r="40" cy="41.458221" cx="295.150826" class="outline"></circle>
    <text id="svg_38" x="295.150826" font-family="sans-serif" fill="#FFFFFF" font-size="10px" y="46.458221" text-anchor="middle">Londyn</text>
   </g>
   <g id="svg_39" class="node">
    <circle id="svg_40" stroke-width="2px" stroke="#5CA8DB" fill="#68BDF6" r="40" cy="215.011742" cx="41.403229" class="outline"></circle>
    <text id="svg_41" x="41.403229" font-family="sans-serif" fill="#FFFFFF" font-size="10px" y="220.011742" text-anchor="middle">Warsaw</text>
   </g>
   <g id="svg_42" class="node">
    <circle id="svg_43" stroke-width="2px" stroke="#60B58B" fill="#6DCE9E" r="25" cy="304.115448" cx="188.062916" class="outline"></circle>
    <text id="svg_44" x="188.062916" font-family="sans-serif" fill="#FFFFFF" font-size="10px" y="309.115448" text-anchor="middle">LOT</text>
   </g>
  </g>
  <path d="m180.5,277.078583c0,0 0.38269,-1.076111 0,-2c-0.541199,-1.306549 -1,-2 -1,-3c0,-1 0.229767,-2.026764 0,-3c-0.513733,-2.176239 -1,-3 -1,-4c0,-1 -1.458801,-2.693451 -2,-4c-0.38269,-0.923889 0.707092,-2.292908 0,-3c-0.707092,-0.707092 -0.61731,-1.076111 -1,-2c-0.541199,-1.306564 -2,-2.000015 -2,-3.000015c0,-2 -0.292908,-2.292892 -1,-3c-0.707092,-0.707108 -1,-1 -1,-2c0,-1 -1,-1 -1,-2c0,-1 0.38269,-2.076126 0,-3c-0.541199,-1.306564 -1,-2 -1,-3c0,-1 0.38269,-3.076126 0,-4c-0.541199,-1.306564 -1,-2 -1,-3c0,-1 -0.486267,-2.823746 -1,-5c-0.229767,-0.973251 1.414215,-3.585785 0,-5c-0.707092,-0.707108 -1.486267,-0.823746 -2,-3c-0.229767,-0.973251 0.38269,-2.076126 0,-3c-0.541199,-1.306564 -1,-2 -1,-3l-1,0" id="svg_47" stroke-width="1.5" stroke="#000" fill="none"></path>
  <path stroke="#000" d="m165.5,216.078568c0,0 0,1 0,2c0,1 -0.404993,2.310013 -2.4,5c-0.8922,1.203003 -1.2,2 -1.2,3c0,1 -1.2,2 -1.2,3c0,1 0,3 0,4c0,1 -1.2,1 -1.2,2c0,1 0,2 0,3l0,1" id="svg_49" stroke-width="1.5" fill="none"></path>
  <path d="m164.5,213.078568c0,0 0,1 1,2c1,1 0.823761,2.486252 3,3c0.973236,0.229752 1.292908,0.292892 2,1c0.707092,0.707108 2,0 3,0c1,0 2,0 3,0c1,0 1,1 2,1c1,0 2.076111,-0.38269 3,0c1.306549,0.541199 1.292908,1.292892 2,2c0.707092,0.707108 2.292908,0.292892 3,1c0.707092,0.707108 1,1 1,2l1,1" id="svg_51" stroke-width="1.5" stroke="#000" fill="none"></path>
  <polyline stroke-linecap="round" id="svg_52" points="1113.5,252.0785675048828 1113.5,252.0785675048828 " stroke-width="1.5" stroke="#000" fill="none"></polyline>
 </g>
</svg>