<?xml version="1.0"?>
<svg xmlns="http://www.w3.org/2000/svg" width="534.8011474609375" height="297.4906005859375" viewBox="-266.4461669921875 -87.69427490234375 534.8011474609375 297.4906005859375"><title>Neo4j Graph Visualization</title><desc>Created using Neo4j (http://www.neo4j.com/)</desc><g class="layer relationships"><g class="relationship" transform="translate(-185.9549191748815 -30.65486102745755) rotate(462.3014799510435)"><path class="outline" fill="#A5ABB6" stroke="none" d="M 40 6.5 L 112.27562632010654 6.5 L 112.27562632010654 9.5 L 131.27562632010654 0 L 112.27562632010654 -9.5 L 112.27562632010654 -6.5 L 40 -6.5 Z"></path><text text-anchor="middle" pointer-events="none" font-size="8px" fill="#FFFFFF" x="76.13781316005327" y="3" transform="rotate(180 76.13781316005327 0)" font-family="sans-serif">Flyes</text></g><g class="relationship" transform="translate(-185.9549191748815 -30.65486102745755) rotate(391.6400221205554)"><path class="outline" fill="#A5ABB6" stroke="none" d="M 36.95470925839635,-16.631279674979773 L 40.319356844729114,-4.074243933221886 A 200.53052012902478 200.53052012902478 0 0 1 135.10520871793403,-6.267904097912392 L 134.46363953267627,-3.337308769224437 L 155.05571236768296,-8.554255803437037 L 138.52691103930886,-21.897745850914824 L 137.8853418540511,-18.96715052222687 A 213.53052012902478 213.53052012902478 0 0 0 36.95470925839635,-16.631279674979773"></path><text text-anchor="middle" pointer-events="none" font-size="8px" fill="#FFFFFF" x="87.43038176357123" y="-14.351733783397606" font-family="sans-serif">Flyes</text></g><g class="relationship" transform="translate(-20.679994308585982 71.18216117944465) rotate(211.6400221205554)"><path class="outline" fill="#A5ABB6" stroke="none" d="M 36.95470925839635,-16.631279674979773 L 40.319356844729114,-4.074243933221886 A 200.53052012902478 200.53052012902478 0 0 1 135.10520871793403,-6.267904097912392 L 134.46363953267627,-3.337308769224437 L 155.05571236768296,-8.554255803437037 L 138.52691103930886,-21.897745850914824 L 137.8853418540511,-18.96715052222687 A 213.53052012902478 213.53052012902478 0 0 0 36.95470925839635,-16.631279674979773"></path><text text-anchor="middle" pointer-events="none" font-size="8px" fill="#FFFFFF" x="87.43038176357123" y="-14.351733783397606" transform="rotate(180 87.43038176357123 -17.351733783397606)" font-family="sans-serif">Flyes</text></g><g class="relationship" transform="translate(-20.679994308585982 71.18216117944465) rotate(383.2124187855753)"><path class="outline" fill="#A5ABB6" stroke="none" d="M 40 6.5 L 181.05145245017223 6.5 L 181.05145245017223 9.5 L 200.05145245017223 0 L 181.05145245017223 -9.5 L 181.05145245017223 -6.5 L 40 -6.5 Z"></path><text text-anchor="middle" pointer-events="none" font-size="8px" fill="#FFFFFF" x="110.52572622508612" y="3" font-family="sans-serif">Flyes</text></g><g class="relationship" transform="translate(-20.679994308585982 71.18216117944465) rotate(357.61126825722397)"><path class="outline" fill="#A5ABB6" stroke="none" d="M 40 6.5 L 186.2480558160146 6.5 L 186.2480558160146 9.5 L 205.2480558160146 0 L 186.2480558160146 -9.5 L 186.2480558160146 -6.5 L 40 -6.5 Z"></path><text text-anchor="middle" pointer-events="none" font-size="8px" fill="#FFFFFF" x="113.1240279080073" y="3" font-family="sans-serif">Flyes</text></g><g class="relationship" transform="translate(-20.679994308585982 71.18216117944465) rotate(522.0132730477968)"><path class="outline" fill="#A5ABB6" stroke="none" d="M 40 6.5 L 153.1335338911573 6.5 L 153.1335338911573 9.5 L 172.1335338911573 0 L 153.1335338911573 -9.5 L 153.1335338911573 -6.5 L 40 -6.5 Z"></path><text text-anchor="middle" pointer-events="none" font-size="8px" fill="#FFFFFF" x="96.56676694557865" y="3" transform="rotate(180 96.56676694557865 0)" font-family="sans-serif">Flyes</text></g><g class="relationship" transform="translate(162.4559029560458 -43.694271554304486) rotate(507.90101010584846)"><path class="outline" fill="#A5ABB6" stroke="none" d="M 40 6.5 L 157.18360637327095 6.5 L 157.18360637327095 9.5 L 176.18360637327095 0 L 157.18360637327095 -9.5 L 157.18360637327095 -6.5 L 40 -6.5 Z"></path><text text-anchor="middle" pointer-events="none" font-size="8px" fill="#FFFFFF" x="98.59180318663547" y="3" transform="rotate(180 98.59180318663547 0)" font-family="sans-serif">Flyes</text></g></g><g class="layer nodes"><g class="node" transform="translate(-185.9549191748815,-30.65486102745755)"><circle class="outline" cx="0" cy="0" r="40" fill="#68BDF6" stroke="#5CA8DB" stroke-width="2px"></circle><text text-anchor="middle" pointer-events="none" y="5" font-size="10px" fill="#FFFFFF" font-family="sans-serif"> San Francisco</text></g><g class="node" transform="translate(199.93927656692796,165.79630991943972)"><circle class="outline" cx="0" cy="0" r="40" fill="#68BDF6" stroke="#5CA8DB" stroke-width="2px"></circle><text text-anchor="middle" pointer-events="none" y="5" font-size="10px" fill="#FFFFFF" font-family="sans-serif"> Washington</text></g><g class="node" transform="translate(224.35495232289895,60.96042889766625)"><circle class="outline" cx="0" cy="0" r="40" fill="#68BDF6" stroke="#5CA8DB" stroke-width="2px"></circle><text text-anchor="middle" pointer-events="none" y="5" font-size="10px" fill="#FFFFFF" font-family="sans-serif"> Las Vegas</text></g><g class="node" transform="translate(-20.679994308585982,71.18216117944465)"><circle class="outline" cx="0" cy="0" r="40" fill="#68BDF6" stroke="#5CA8DB" stroke-width="2px"></circle><text text-anchor="middle" pointer-events="none" y="5" font-size="10px" fill="#FFFFFF" font-family="sans-serif"> New York</text></g><g class="node" transform="translate(162.4559029560458,-43.694271554304486)"><circle class="outline" cx="0" cy="0" r="40" fill="#68BDF6" stroke="#5CA8DB" stroke-width="2px"></circle><text text-anchor="middle" pointer-events="none" y="5" font-size="10px" fill="#FFFFFF" font-family="sans-serif"> Londyn</text></g><g class="node" transform="translate(-222.44615449817675,136.68828916377274)"><circle class="outline" cx="0" cy="0" r="40" fill="#68BDF6" stroke="#5CA8DB" stroke-width="2px"></circle><text text-anchor="middle" pointer-events="none" y="5" font-size="10px" fill="#FFFFFF" font-family="sans-serif"> Warsaw</text></g></g></svg>