<?xml version="1.0"?>
<svg xmlns="http://www.w3.org/2000/svg" width="558.074462890625" height="386.34014892578125" viewBox="-196.97909545898438 -144.600341796875 558.074462890625 386.34014892578125"><title>Neo4j Graph Visualization</title><desc>Created using Neo4j (http://www.neo4j.com/)</desc><g class="layer relationships"><g class="relationship" transform="translate(70.82127037185931 -120.60035061120388) rotate(396.61275464727316)"><path class="outline" fill="#D4D6D7" stroke="none" d="M 20 6.5 L 79.84005672032538 6.5 L 79.84005672032538 9.5 L 98.84005672032538 0 L 79.84005672032538 -9.5 L 79.84005672032538 -6.5 L 20 -6.5 Z"></path><text text-anchor="middle" pointer-events="none" font-size="8px" fill="#FFFFFF" x="49.92002836016269" y="3" font-family="sans-serif">YEAR</text></g><g class="relationship" transform="translate(70.82127037185931 -120.60035061120388) rotate(487.7942919356597)"><path class="outline" fill="#D4D6D7" stroke="none" d="M 20 6.5 L 70.84319741820006 6.5 L 70.84319741820006 9.5 L 89.84319741820006 0 L 70.84319741820006 -9.5 L 70.84319741820006 -6.5 L 20 -6.5 Z"></path><text text-anchor="middle" pointer-events="none" font-size="8px" fill="#FFFFFF" x="45.42159870910003" y="3" transform="rotate(180 45.42159870910003 0)" font-family="sans-serif">YEAR</text></g><g class="relationship" transform="translate(3.506246938447007 -33.80049093843237) rotate(417.12738714534134)"><path class="outline" fill="#D4D6D7" stroke="none" d="M 20 6.5 L 75.54601331191373 6.5 L 75.54601331191373 9.5 L 94.54601331191373 0 L 75.54601331191373 -9.5 L 75.54601331191373 -6.5 L 20 -6.5 Z"></path><text text-anchor="middle" pointer-events="none" font-size="8px" fill="#FFFFFF" x="47.77300665595686" y="3" font-family="sans-serif">MONTH</text></g><g class="relationship" transform="translate(3.506246938447007 -33.80049093843237) rotate(514.099073101718)"><path class="outline" fill="#D4D6D7" stroke="none" d="M 20 6.5 L 64.60674242184565 6.5 L 64.60674242184565 9.5 L 83.60674242184565 0 L 64.60674242184565 -9.5 L 64.60674242184565 -6.5 L 20 -6.5 Z"></path><text text-anchor="middle" pointer-events="none" font-size="8px" fill="#FFFFFF" x="42.303371210922826" y="3" transform="rotate(180 42.303371210922826 0)" font-family="sans-serif">MONTH</text></g><g class="relationship" transform="translate(-89.69327202780781 11.456627172704367) rotate(473.3234869266674)"><path class="outline" fill="#D4D6D7" stroke="none" d="M 20 6.5 L 63.63056797498898 6.5 L 63.63056797498898 9.5 L 82.63056797498898 0 L 63.63056797498898 -9.5 L 63.63056797498898 -6.5 L 20 -6.5 Z"></path><text text-anchor="middle" pointer-events="none" font-size="8px" fill="#FFFFFF" x="41.81528398749449" y="3" transform="rotate(180 41.81528398749449 0)" font-family="sans-serif">DAY</text></g><g class="relationship" transform="translate(-121.90889661195342 212.7398215463359) rotate(265.50324192579643)"><path class="outline" fill="#D4D6D7" stroke="none" d="M 25 4 L 27.18483890865157 4 L 27.18483890865157 -4 L 25 -4 Z M 71.18483890865157 4 L 73.36967781730314 4 L 73.36967781730314 7 L 87.36967781730314 0 L 73.36967781730314 -7 L 73.36967781730314 -4 L 71.18483890865157 -4 Z"></path><text text-anchor="middle" pointer-events="none" font-size="8px" fill="#000000" x="49.18483890865157" y="3" transform="rotate(180 49.18483890865157 0)" font-family="sans-serif">OCCUR…</text></g><g class="relationship" transform="translate(65.67873630365753 62.40434642324036) rotate(403.0449646220005)"><path class="outline" fill="#D4D6D7" stroke="none" d="M 20 6.5 L 72.99530472337295 6.5 L 72.99530472337295 9.5 L 91.99530472337295 0 L 72.99530472337295 -9.5 L 72.99530472337295 -6.5 L 20 -6.5 Z"></path><text text-anchor="middle" pointer-events="none" font-size="8px" fill="#FFFFFF" x="46.49765236168648" y="3" font-family="sans-serif">DAY</text></g><g class="relationship" transform="translate(88.69704288157781 201.04709763129148) rotate(313.4059785154205)"><path class="outline" fill="#D4D6D7" stroke="none" d="M 25 4 L 25.306349684409547 4 L 25.306349684409547 -4 L 25 -4 Z M 51.30634968440955 4 L 51.612699368819094 4 L 51.612699368819094 7 L 65.6126993688191 0 L 51.612699368819094 -7 L 51.612699368819094 -4 L 51.30634968440955 -4 Z"></path><text text-anchor="middle" pointer-events="none" font-size="8px" fill="#000000" x="38.30634968440955" y="3" font-family="sans-serif">OC…</text></g><g class="relationship" transform="translate(166.21236913387008 -49.72371582747236) rotate(380.74177599720605)"><path class="outline" fill="#D4D6D7" stroke="none" d="M 20 6.5 L 74.32359356572398 6.5 L 74.32359356572398 9.5 L 93.32359356572398 0 L 74.32359356572398 -9.5 L 74.32359356572398 -6.5 L 20 -6.5 Z"></path><text text-anchor="middle" pointer-events="none" font-size="8px" fill="#FFFFFF" x="47.16179678286199" y="3" font-family="sans-serif">MONTH</text></g><g class="relationship" transform="translate(272.1910133741504 -9.589393562838262) rotate(415.08107849036946)"><path class="outline" fill="#D4D6D7" stroke="none" d="M 20 6.5 L 68.31042226783583 6.5 L 68.31042226783583 9.5 L 87.31042226783583 0 L 68.31042226783583 -9.5 L 68.31042226783583 -6.5 L 20 -6.5 Z"></path><text text-anchor="middle" pointer-events="none" font-size="8px" fill="#FFFFFF" x="44.155211133917916" y="3" font-family="sans-serif">DAY</text></g><g class="relationship" transform="translate(332.095324943444 187.32600003563869) rotate(270.8005200782564)"><path class="outline" fill="#D4D6D7" stroke="none" d="M 25 4 L 27.96773132742326 4 L 27.96773132742326 -4 L 25 -4 Z M 71.96773132742325 4 L 74.93546265484652 4 L 74.93546265484652 7 L 88.93546265484652 0 L 74.93546265484652 -7 L 74.93546265484652 -4 L 71.96773132742325 -4 Z"></path><text text-anchor="middle" pointer-events="none" font-size="8px" fill="#000000" x="49.96773132742326" y="3" font-family="sans-serif">OCCUR…</text></g></g><g class="layer nodes"><g class="node" transform="translate(70.82127037185931,-120.60035061120388)"><circle class="outline" cx="0" cy="0" r="20" fill="#F25A29" stroke="#DC4717" stroke-width="2px"></circle><text text-anchor="middle" pointer-events="none" y="5" font-size="10px" fill="#fff" font-family="sans-serif"> 46</text></g><g class="node" transform="translate(3.506246938447007,-33.80049093843237)"><circle class="outline" cx="0" cy="0" r="20" fill="#68BDF6" stroke="#5CA8DB" stroke-width="2px"></circle><text text-anchor="middle" pointer-events="none" y="5" font-size="10px" fill="#FFFFFF" font-family="sans-serif"> 2007</text></g><g class="node" transform="translate(-89.69327202780781,11.456627172704367)"><circle class="outline" cx="0" cy="0" r="20" fill="#FF756E" stroke="#E06760" stroke-width="2px"></circle><text text-anchor="middle" pointer-events="none" y="5" font-size="10px" fill="#FFFFFF" font-family="sans-serif"> 1</text></g><g class="node selected" transform="translate(-130.32696793539267,105.70065212791707)"><circle class="outline" cx="0" cy="0" r="20" fill="#DE9BF9" stroke="#BF85D6" stroke-width="2px"></circle><text text-anchor="middle" pointer-events="none" y="5" font-size="10px" fill="#FFFFFF" font-family="sans-serif"> 14</text></g><g class="node" transform="translate(-121.90889661195342,212.7398215463359)"><circle class="outline" cx="0" cy="0" r="25" fill="#30B6AF" stroke="#46A39E" stroke-width="2px"></circle><text text-anchor="middle" pointer-events="none" y="5" font-size="10px" fill="#fff" font-family="sans-serif"> purchas…</text></g><g class="node" transform="translate(65.67873630365753,62.40434642324036)"><circle class="outline" cx="0" cy="0" r="20" fill="#FF756E" stroke="#E06760" stroke-width="2px"></circle><text text-anchor="middle" pointer-events="none" y="5" font-size="10px" fill="#FFFFFF" font-family="sans-serif"> 5</text></g><g class="node" transform="translate(147.52694972847493,138.84921701144074)"><circle class="outline" cx="0" cy="0" r="20" fill="#DE9BF9" stroke="#BF85D6" stroke-width="2px"></circle><text text-anchor="middle" pointer-events="none" y="5" font-size="10px" fill="#FFFFFF" font-family="sans-serif"> 24</text></g><g class="node" transform="translate(88.69704288157781,201.04709763129148)"><circle class="outline" cx="0" cy="0" r="25" fill="#30B6AF" stroke="#46A39E" stroke-width="2px"></circle><text text-anchor="middle" pointer-events="none" y="5" font-size="10px" fill="#fff" font-family="sans-serif"> purchas…</text></g><g class="node" transform="translate(166.21236913387008,-49.72371582747236)"><circle class="outline" cx="0" cy="0" r="20" fill="#68BDF6" stroke="#5CA8DB" stroke-width="2px"></circle><text text-anchor="middle" pointer-events="none" y="5" font-size="10px" fill="#FFFFFF" font-family="sans-serif"> 2008</text></g><g class="node" transform="translate(272.1910133741504,-9.589393562838262)"><circle class="outline" cx="0" cy="0" r="20" fill="#FF756E" stroke="#E06760" stroke-width="2px"></circle><text text-anchor="middle" pointer-events="none" y="5" font-size="10px" fill="#FFFFFF" font-family="sans-serif"> 3</text></g><g class="node" transform="translate(333.6172902375959,78.40116978344662)"><circle class="outline" cx="0" cy="0" r="20" fill="#DE9BF9" stroke="#BF85D6" stroke-width="2px"></circle><text text-anchor="middle" pointer-events="none" y="5" font-size="10px" fill="#FFFFFF" font-family="sans-serif"> 6</text></g><g class="node" transform="translate(332.095324943444,187.32600003563869)"><circle class="outline" cx="0" cy="0" r="25" fill="#30B6AF" stroke="#46A39E" stroke-width="2px"></circle><text text-anchor="middle" pointer-events="none" y="5" font-size="10px" fill="#fff" font-family="sans-serif"> purchas…</text></g></g></svg>